<svg width="35" height="35" viewBox="0 0 35 35" fill="none" xmlns="http://www.w3.org/2000/svg">
<circle cx="17.5" cy="17.5" r="17" transform="rotate(90 17.5 17.5)" stroke="#272322"/>
<path fill-rule="evenodd" clip-rule="evenodd" d="M13.1626 21.104C13.3109 21.0332 13.4468 20.8931 13.4949 20.7616C13.5426 20.6315 13.5371 20.3621 13.4842 20.2368C13.4595 20.178 12.9288 19.6054 12.2898 18.9479L11.14 17.7648L17.9792 17.7484L24.8184 17.7319L24.94 17.6539C25.0069 17.611 25.1 17.516 25.147 17.4427C25.2182 17.3317 25.2324 17.273 25.2324 17.0911C25.2324 16.9091 25.2182 16.8504 25.147 16.7394C25.1 16.6661 25.0069 16.5711 24.94 16.5282L24.8184 16.4502L17.9792 16.4338L11.14 16.4173L12.2898 15.2342C12.9288 14.5767 13.4595 14.0041 13.4842 13.9453C13.5371 13.82 13.5426 13.5506 13.4949 13.4205C13.3784 13.1023 12.9635 12.9297 12.6623 13.0742C12.5245 13.1403 9.14652 16.5659 9.03244 16.7553C8.92318 16.9366 8.9278 17.2611 9.04213 17.4394C9.17464 17.646 12.5268 21.043 12.6622 21.1079C12.8158 21.1815 13.0034 21.1801 13.1626 21.104Z" fill="#272322"/>
</svg>
