<svg width="17" height="17" viewBox="0 0 17 17" fill="none" xmlns="http://www.w3.org/2000/svg">
<path id="Union" fill-rule="evenodd" clip-rule="evenodd" d="M15.7041 0.396289C15.1757 -0.132096 14.319 -0.132096 13.7907 0.396289L8.0497 6.13725L2.30974 0.397295C1.78136 -0.13109 0.924675 -0.131091 0.396289 0.397295C-0.132096 0.925681 -0.132097 1.78236 0.396289 2.31075L6.13625 8.05071L0.396492 13.7905C-0.131894 14.3188 -0.131894 15.1755 0.396492 15.7039C0.924877 16.2323 1.78156 16.2323 2.30994 15.7039L8.0497 9.96416L13.7905 15.7049C14.3188 16.2333 15.1755 16.2333 15.7039 15.7049C16.2323 15.1765 16.2323 14.3199 15.7039 13.7915L9.96315 8.0507L15.7041 2.30974C16.2325 1.78136 16.2325 0.924674 15.7041 0.396289Z" fill="#FFCB00"/>
</svg>
