<svg width="18" height="17" viewBox="0 0 18 17" fill="none" xmlns="http://www.w3.org/2000/svg">
<g id="Group 1000003655">
<path id="Vector" d="M17.0992 15.2188H0.899958C0.661274 15.2188 0.432366 15.3126 0.263591 15.4796C0.0948167 15.6467 0 15.8732 0 16.1095C0 16.3457 0.0948167 16.5723 0.263591 16.7393C0.432366 16.9064 0.661274 17.0002 0.899958 17.0002H17.0992C17.3379 17.0002 17.5668 16.9064 17.7356 16.7393C17.9043 16.5723 17.9992 16.3457 17.9992 16.1095C17.9992 15.8732 17.9043 15.6467 17.7356 15.4796C17.5668 15.3126 17.3379 15.2188 17.0992 15.2188Z" fill="#232326"/>
<path id="Vector_2" d="M9.00109 0C8.7624 0 8.53349 0.0938449 8.36472 0.26089C8.19594 0.427935 8.10113 0.654497 8.10113 0.890734V10.3236L5.14027 7.38419C4.9708 7.21646 4.74096 7.12223 4.5013 7.12223C4.26164 7.12223 4.03179 7.21646 3.86233 7.38419C3.69286 7.55192 3.59766 7.77941 3.59766 8.01661C3.59766 8.25381 3.69286 8.4813 3.86233 8.64903L8.36212 13.1027C8.44578 13.1862 8.54531 13.2525 8.65498 13.2977C8.76465 13.3429 8.88228 13.3662 9.00109 13.3662C9.11989 13.3662 9.23752 13.3429 9.34719 13.2977C9.45686 13.2525 9.55639 13.1862 9.64006 13.1027L14.1398 8.64903C14.2238 8.56598 14.2903 8.46739 14.3357 8.35887C14.3811 8.25036 14.4045 8.13406 14.4045 8.01661C14.4045 7.89916 14.3811 7.78286 14.3357 7.67435C14.2903 7.56583 14.2238 7.46724 14.1398 7.38419C14.0559 7.30114 13.9563 7.23526 13.8467 7.19031C13.737 7.14536 13.6195 7.12223 13.5009 7.12223C13.3822 7.12223 13.2647 7.14536 13.1551 7.19031C13.0454 7.23526 12.9458 7.30114 12.8619 7.38419L9.90104 10.3236V0.890734C9.90104 0.654497 9.80623 0.427935 9.63745 0.26089C9.46868 0.0938449 9.23977 0 9.00109 0Z" fill="#232326"/>
</g>
</svg>
