<svg width="35" height="33" viewBox="0 0 35 33" fill="none" xmlns="http://www.w3.org/2000/svg">
<path d="M32.853 29.542H1.72911C1.27052 29.542 0.830713 29.7242 0.506443 30.0484C0.182173 30.3727 0 30.8125 0 31.2711C0 31.7297 0.182173 32.1695 0.506443 32.4938C0.830713 32.818 1.27052 33.0002 1.72911 33.0002H32.853C33.3116 33.0002 33.7514 32.818 34.0757 32.4938C34.3999 32.1695 34.5821 31.7297 34.5821 31.2711C34.5821 30.8125 34.3999 30.3727 34.0757 30.0484C33.7514 29.7242 33.3116 29.542 32.853 29.542Z" fill="#FF5C17"/>
<path d="M17.2914 0C16.8328 0 16.393 0.182173 16.0687 0.506443C15.7444 0.830713 15.5623 1.27052 15.5623 1.72911V20.0403L9.87351 14.3343C9.54792 14.0087 9.10631 13.8258 8.64585 13.8258C8.18538 13.8258 7.74378 14.0087 7.41818 14.3343C7.09259 14.6599 6.90967 15.1015 6.90967 15.5619C6.90967 16.0224 7.09259 16.464 7.41818 16.7896L16.0637 25.4351C16.2245 25.5972 16.4157 25.7258 16.6264 25.8136C16.8371 25.9014 17.0631 25.9466 17.2914 25.9466C17.5196 25.9466 17.7456 25.9014 17.9563 25.8136C18.1671 25.7258 18.3583 25.5972 18.519 25.4351L27.1646 16.7896C27.3258 16.6284 27.4537 16.437 27.5409 16.2264C27.6282 16.0157 27.6731 15.7899 27.6731 15.5619C27.6731 15.334 27.6282 15.1082 27.5409 14.8975C27.4537 14.6869 27.3258 14.4955 27.1646 14.3343C27.0033 14.1731 26.8119 14.0452 26.6013 13.9579C26.3907 13.8707 26.1649 13.8258 25.9369 13.8258C25.7089 13.8258 25.4831 13.8707 25.2725 13.9579C25.0618 14.0452 24.8705 14.1731 24.7092 14.3343L19.0205 20.0403V1.72911C19.0205 1.27052 18.8383 0.830713 18.514 0.506443C18.1898 0.182173 17.75 0 17.2914 0Z" fill="#FF5C17"/>
</svg>
