<svg width="19" height="14" viewBox="0 0 19 14" fill="none" xmlns="http://www.w3.org/2000/svg">
<path d="M10.6902 8.92418C10.2344 9.22801 9.70505 9.38862 9.15925 9.38862C8.61349 9.38862 8.08411 9.22801 7.62837 8.92418L0.121968 3.91976C0.0803223 3.892 0.0397497 3.86306 0 3.83329V12.0336C0 12.9738 0.762973 13.7199 1.68634 13.7199H16.6321C17.5723 13.7199 18.3185 12.9569 18.3185 12.0336V3.83325C18.2786 3.86309 18.238 3.89211 18.1962 3.91991L10.6902 8.92418Z" fill="#181717"/>
<path d="M0.717355 3.02656L8.22375 8.03102C8.5079 8.22046 8.83356 8.31517 9.15921 8.31517C9.4849 8.31517 9.81059 8.22043 10.0947 8.03102L17.6011 3.02656C18.0503 2.72727 18.3185 2.22638 18.3185 1.68577C18.3185 0.756211 17.5623 0 16.6327 0H1.68577C0.756246 3.57783e-05 0 0.756246 0 1.68666C0 2.22638 0.268194 2.72727 0.717355 3.02656Z" fill="#181717"/>
</svg>
