<svg width="47" height="47" viewBox="0 0 47 47" fill="none" xmlns="http://www.w3.org/2000/svg">
<g id="Group 1000003676">
<circle id="Ellipse 173" cx="23.5" cy="23.5" r="23.5" fill="#FFD939"/>
<path id="!" d="M27 11L26.35 27.9231H20.6501L20.0002 11H27ZM23.5001 36C22.5334 36 21.7043 35.6755 21.0126 35.0264C20.3293 34.3694 19.9918 33.5721 20.0002 32.6346C19.9918 31.7212 20.3293 30.9399 21.0126 30.2909C21.7043 29.6418 22.5334 29.3173 23.5001 29.3173C24.4167 29.3173 25.225 29.6418 25.925 30.2909C26.6333 30.9399 26.9917 31.7212 27 32.6346C26.9917 33.2596 26.8208 33.8285 26.4875 34.3413C26.1625 34.8462 25.7375 35.2508 25.2125 35.5553C24.6876 35.8518 24.1167 36 23.5001 36Z" fill="#3D3736"/>
</g>
</svg>
