<svg width="9" height="8" viewBox="0 0 9 8" fill="none" xmlns="http://www.w3.org/2000/svg">
<path d="M0.622113 3.62172C0.821124 3.61403 0.971222 3.72722 1.10452 3.88978C1.6835 4.59432 2.26324 5.29796 2.84372 6.00069C3.00651 6.1981 3.00688 6.1981 3.17453 5.9948C4.74421 4.09308 6.31352 2.19136 7.88246 0.289633C8.06915 0.0632373 8.28123 -0.0621855 8.54932 0.0310895C8.64744 0.0633624 8.73737 0.124845 8.81093 0.209956C8.8845 0.295068 8.93937 0.401114 8.97056 0.518465C9.00175 0.635815 9.00828 0.760755 8.98956 0.881943C8.97083 1.00313 8.92744 1.11673 8.86333 1.21242C8.83365 1.25603 8.80186 1.29746 8.76812 1.33649L3.49302 7.72084C3.25145 8.01334 2.96581 8.0799 2.70893 7.90196C2.65252 7.86222 2.60067 7.81366 2.55472 7.75752C1.76689 6.80786 0.981179 5.85806 0.197581 4.9081C-0.109709 4.53455 -0.0495958 3.96358 0.315569 3.70956C0.408785 3.64554 0.515123 3.61507 0.622113 3.62172Z" fill="white"/>
</svg>
