<svg width="25" height="29" viewBox="0 0 25 29" fill="none" xmlns="http://www.w3.org/2000/svg">
<g id="Group 383">
<path id="Polygon 8" d="M12.5 0L25 7.25V21.75L12.5 29L0 21.75V7.25L12.5 0Z" fill="white"/>
<g id="Group">
<path id="Vector" d="M12.5512 13.5127C11.6621 13.5127 10.9399 14.2382 10.9399 15.1314C10.9399 16.0246 11.6621 16.7519 12.5512 16.7519C13.4404 16.7519 14.1643 16.0246 14.1643 15.1314C14.1643 14.2382 13.4404 13.5127 12.5512 13.5127Z" fill="#3D3736"/>
<path id="Vector_2" d="M14.983 10.7163H10.1192C9.03854 10.7163 8.1582 11.6007 8.1582 12.6863V17.5724C8.1582 18.6598 9.03854 19.5424 10.1192 19.5424H14.983C16.0654 19.5424 16.944 18.6598 16.944 17.5724V12.6863C16.944 11.6007 16.0654 10.7163 14.983 10.7163ZM12.5511 17.989C10.9819 17.989 9.7045 16.7057 9.7045 15.1293C9.7045 13.553 10.9819 12.2715 12.5511 12.2715C14.1202 12.2715 15.3977 13.553 15.3977 15.1293C15.3977 16.7057 14.1202 17.989 12.5511 17.989ZM15.4574 12.7904C15.1253 12.7904 14.8547 12.5204 14.8547 12.1867C14.8547 11.8531 15.1253 11.5813 15.4574 11.5813C15.7895 11.5813 16.0601 11.8531 16.0601 12.1867C16.0601 12.5204 15.7895 12.7904 15.4574 12.7904Z" fill="#3D3736"/>
</g>
</g>
</svg>
