<svg width="9" height="13" viewBox="0 0 9 13" fill="none" xmlns="http://www.w3.org/2000/svg">
<path d="M4.46529 0C3.2815 0.00159836 2.14665 0.480961 1.30959 1.33297C0.472524 2.18498 0.00157032 3.3401 0 4.54502C0 7.80797 4.16016 11.8947 4.33691 12.067C4.37129 12.101 4.41735 12.1201 4.46529 12.1201C4.51323 12.1201 4.55929 12.101 4.59367 12.067C4.77042 11.8947 8.93058 7.80797 8.93058 4.54502C8.92901 3.3401 8.45806 2.18498 7.62099 1.33297C6.78393 0.480961 5.64908 0.00159836 4.46529 0ZM4.46529 6.62816C4.06051 6.62816 3.66483 6.50598 3.32827 6.27709C2.99171 6.04819 2.72939 5.72285 2.57449 5.34221C2.41959 4.96156 2.37906 4.54271 2.45802 4.13862C2.53699 3.73453 2.73191 3.36336 3.01813 3.07202C3.30435 2.78069 3.66902 2.58229 4.06602 2.50191C4.46302 2.42154 4.87452 2.46279 5.24849 2.62046C5.62245 2.77812 5.94209 3.04513 6.16697 3.3877C6.39185 3.73026 6.51188 4.13302 6.51188 4.54502C6.51156 5.0974 6.29583 5.62706 5.91209 6.01766C5.52835 6.40825 5.00798 6.62783 4.46529 6.62816Z" fill="#181717"/>
</svg>
