<svg width="87" height="31" viewBox="0 0 87 31" fill="none" xmlns="http://www.w3.org/2000/svg">
<g id="Logo">
<g id="&#208;&#161;&#208;&#187;&#208;&#190;&#208;&#185; 1">
<path id="Vector" d="M39.852 19.3401V12.8762H34.1971V19.3401H31.1624V4.9375H34.1971V10.3601H39.852V4.9375H42.9082V19.3401H39.852Z" fill="#181717"/>
<path id="Vector_2" d="M43.7786 14.0046C43.7786 10.6212 45.8967 8.38672 49.3024 8.38672C52.6647 8.38672 54.7608 10.5993 54.7608 14.0046C54.7608 17.3885 52.6432 19.6224 49.3024 19.6224C45.8307 19.6224 43.7786 17.3234 43.7786 14.0046ZM51.9006 14.0046C51.9006 11.8357 51.0271 10.7727 49.3024 10.7727C47.5778 10.7727 46.7043 11.8357 46.7043 14.0046C46.7043 16.1734 47.5778 17.2584 49.3024 17.2584C51.0271 17.2584 51.9006 16.1739 51.9006 14.0046Z" fill="#181717"/>
<path id="Vector_3" d="M62.5262 19.3408V12.8769C62.5262 11.2282 62.0456 10.7727 60.692 10.7727C59.2079 10.7727 58.4869 11.5973 58.4869 13.2242V19.3408H55.6487V8.66888H58.3559V10.2307C59.0109 9.03798 60.1025 8.38672 61.8276 8.38672C63.8798 8.38672 65.3864 9.62316 65.3864 11.9455V19.3408H62.5262Z" fill="#181717"/>
<path id="Vector_4" d="M69.1398 14.7423C69.2273 16.3473 70.1444 17.3885 71.5415 17.3885C72.4586 17.3885 73.2661 16.9309 73.4631 16.1953H76.3888C75.7338 18.3865 73.9652 19.6224 71.6725 19.6224C68.0902 19.6224 66.2991 17.6707 66.2991 13.8093C66.2991 10.5129 68.1982 8.38672 71.4954 8.38672C74.7927 8.38672 76.5388 10.5129 76.5388 14.7418L69.1398 14.7423ZM73.6156 12.9629C73.5721 11.3792 72.5241 10.6201 71.4105 10.6201C70.2754 10.6201 69.3363 11.488 69.2273 12.9629H73.6156Z" fill="#181717"/>
<path id="Vector_5" d="M84.1621 17.931C83.7686 18.8853 82.59 19.4491 81.2584 19.4491C79.0067 19.4491 77.3281 17.931 77.3281 15.5883V8.66895H80.1663V15.1765C80.1663 16.4984 80.7804 17.172 81.9784 17.172C83.2665 17.172 84.1621 16.326 84.1621 15.1765V8.66895H87.0003V19.6225C87.0003 22.6378 84.8171 24.3944 82.066 24.3944C78.9217 24.3944 77.3281 22.6811 77.3281 19.9265H79.9698C79.9698 21.1843 80.7124 21.9652 82.197 21.9652C83.2205 21.9652 84.1621 21.076 84.1621 19.6662V17.931Z" fill="#181717"/>
<path id="Vector_6" d="M34.0039 27.7799L33.5028 26.1556H30.5777L30.0147 27.7799H28.262L31.0915 19.9053H33.0131L35.8068 27.7799H34.0039ZM32.0341 21.6725H32.0223L31.0075 24.8032H33.0249L32.0341 21.6725Z" fill="#181717"/>
<path id="Vector_7" d="M41.0502 25.6661C40.8834 27.018 39.7709 27.9316 38.3523 27.9316C36.7525 27.9316 35.6543 26.8761 35.6543 24.7886C35.6543 22.7011 36.7525 21.7891 38.4004 21.7891C39.9285 21.7891 40.9668 22.6533 41.0615 24.0306H39.4986C39.4147 23.4256 38.973 23.0702 38.3881 23.0702C37.7315 23.0702 37.1947 23.4851 37.1947 24.7541C37.1947 26.023 37.7315 26.6397 38.3405 26.6397C38.9495 26.6397 39.427 26.2956 39.4863 25.6672L41.0502 25.6661Z" fill="#181717"/>
<path id="Vector_8" d="M45.0871 27.7776C45.035 27.608 45.0031 27.433 44.992 27.256C44.622 27.6592 44.0012 27.9322 43.2131 27.9322C41.8759 27.9322 41.2551 27.2799 41.2551 26.3312C41.2551 24.6469 42.3892 24.4572 43.9531 24.2437C44.7294 24.1369 44.9444 23.9829 44.9444 23.5797C44.9444 23.2 44.5621 22.9747 43.9531 22.9747C43.2489 22.9747 42.9623 23.3189 42.8907 23.839H41.4465C41.4701 22.6295 42.1389 21.7871 44.0247 21.7871C45.887 21.7871 46.5323 22.6173 46.5323 24.0881V27.7761L45.0871 27.7776ZM44.9797 24.9194C44.8262 25.0719 44.5503 25.1568 43.9772 25.2636C43.0939 25.4298 42.8073 25.6784 42.8073 26.1787C42.8073 26.6174 43.0698 26.831 43.5596 26.831C44.3589 26.831 44.9561 26.2499 44.9679 25.56L44.9797 24.9194Z" fill="#181717"/>
<path id="Vector_9" d="M51.2074 27.7788L51.1956 27.067C50.8256 27.6598 50.2745 27.9313 49.558 27.9313C48.078 27.9313 47.0156 26.7691 47.0156 24.8001C47.0156 23.0334 47.9107 21.7878 49.427 21.7878C50.1552 21.7878 50.7279 22.0842 51.167 22.7029V19.8096H52.6951V27.7788H51.2074ZM51.2315 25.0039C51.2315 23.7329 50.7898 23.1066 49.9301 23.1066C49.0232 23.1066 48.5934 23.7111 48.5934 24.9089C48.5934 25.9526 49.1425 26.6761 49.9183 26.6761C50.6583 26.6761 51.2315 25.9882 51.2315 25.0039Z" fill="#181717"/>
<path id="Vector_10" d="M54.7704 25.264C54.818 26.1415 55.3195 26.7109 56.0836 26.7109C56.5851 26.7109 57.0267 26.4618 57.1342 26.0586H58.7334C58.3752 27.2564 57.4085 27.9326 56.1552 27.9326C54.1973 27.9326 53.2183 26.865 53.2183 24.7541C53.2183 22.9513 54.2571 21.7891 56.0595 21.7891C57.8619 21.7891 58.8174 22.9513 58.8174 25.264H54.7704ZM57.2156 24.2914C57.1915 23.4271 56.6184 23.0108 56.0099 23.0108C55.3891 23.0108 54.8758 23.4851 54.816 24.2914H57.2156Z" fill="#181717"/>
<path id="Vector_11" d="M66.1806 27.7781V24.2441C66.1806 23.5446 65.8106 23.0463 65.2594 23.0463C64.6862 23.0463 64.2686 23.5802 64.2686 24.2914V27.7781H62.7165V24.2701C62.7165 23.3331 62.4657 23.0957 61.7856 23.0957C61.1648 23.0957 60.8424 23.4754 60.8424 24.2345V27.7801H59.2903V21.9436H60.7472V22.7972C61.1413 22.0265 61.6904 21.7891 62.4662 21.7891C63.2661 21.7891 63.6484 22.0382 64.1038 22.7144C64.4263 22.0738 64.9513 21.7891 65.6903 21.7891C66.8724 21.7891 67.6964 22.6432 67.6964 23.7342V27.7781H66.1806Z" fill="#181717"/>
<path id="Vector_12" d="M72.0622 27.0061C71.8478 27.5282 71.203 27.8363 70.4758 27.8363C69.2476 27.8363 68.3264 27.0061 68.3264 25.7254V21.9424H69.8786V25.5012C69.8786 26.2247 70.2127 26.5922 70.8693 26.5922C71.5735 26.5922 72.0627 26.1296 72.0627 25.5012V21.9424H73.6149V27.9314C73.6149 29.5796 72.421 30.5405 70.9169 30.5405C69.1979 30.5405 68.3264 29.6035 68.3264 28.0971H69.7711C69.7711 28.785 70.1769 29.212 70.9886 29.212C71.5515 29.212 72.0633 28.7255 72.0633 27.9548L72.0622 27.0061Z" fill="#181717"/>
<g id="Clip path group">
<mask id="mask0_3028_3453" style="mask-type:luminance" maskUnits="userSpaceOnUse" x="9" y="6" width="10" height="7">
<g id="clip-path">
<path id="Vector_13" d="M9.45215 8.16891V12.8467H18.0251V6.55371H9.53659L9.45215 8.16891Z" fill="white"/>
</g>
</mask>
<g mask="url(#mask0_3028_3453)">
<g id="Group">
<path id="Vector_14" d="M13.6724 27.9571C13.2129 27.9575 12.7613 27.8376 12.3633 27.6094L5.63375 23.7491C5.23637 23.5202 4.90639 23.1918 4.67677 22.7965C4.44715 22.4013 4.32592 21.9532 4.3252 21.4969V13.7778C4.32597 13.3214 4.44722 12.8733 4.67684 12.4781C4.90645 12.0829 5.23641 11.7545 5.63375 11.5255L12.3633 7.66574C12.7615 7.43814 13.2128 7.31836 13.6721 7.31836C14.1315 7.31836 14.5828 7.43814 14.981 7.66574L21.7105 11.5255C22.108 11.7543 22.4382 12.0827 22.6679 12.4779C22.8976 12.8732 23.0189 13.3214 23.0196 13.7778V21.4974C23.0188 21.9537 22.8975 22.4018 22.6678 22.7969C22.438 23.192 22.108 23.5204 21.7105 23.7491L14.981 27.6094C14.5831 27.8376 14.1318 27.9575 13.6724 27.9571ZM13.6724 9.18231C13.5424 9.18229 13.4146 9.21613 13.3019 9.28043L6.57231 13.1402C6.45987 13.2051 6.3665 13.2981 6.30149 13.4099C6.23648 13.5218 6.20211 13.6486 6.2018 13.7778V21.4974C6.20206 21.6265 6.23641 21.7534 6.30142 21.8653C6.36643 21.9771 6.45984 22.0701 6.57231 22.1349L13.3019 25.9947C13.4145 26.0592 13.5422 26.0931 13.6721 26.0931C13.8021 26.0931 13.9298 26.0592 14.0424 25.9947L20.7725 22.1349C20.8849 22.0701 20.9782 21.9771 21.0432 21.8652C21.1081 21.7533 21.1423 21.6265 21.1425 21.4974V13.7778C21.1423 13.6486 21.108 13.5218 21.0431 13.41C20.9782 13.2981 20.8849 13.2051 20.7725 13.1402L14.0429 9.28043C13.9301 9.21626 13.8024 9.18244 13.6724 9.18231Z" fill="#181717"/>
</g>
</g>
</g>
</g>
<g id="Group 1000003623">
<path id="Vector_15" d="M8.56233 10.9578V6.83119C8.56233 6.68769 8.56233 6.54419 8.56233 6.40011C8.5573 6.34468 8.56459 6.28883 8.58371 6.23651C8.60008 6.19775 8.60586 6.15537 8.60047 6.11368C8.58429 5.97936 8.64149 5.86111 8.67905 5.73827C8.741 5.55986 8.82055 5.38797 8.91652 5.2251C8.96485 5.12017 9.03201 5.02486 9.11471 4.94384C9.14436 4.91498 9.16896 4.88142 9.18751 4.84453C9.24418 4.74295 9.3264 4.65771 9.42614 4.59713C9.49863 4.55589 9.56414 4.50359 9.62028 4.44215C9.66823 4.38533 9.72847 4.34001 9.79651 4.30955C9.86101 4.28293 9.92118 4.24695 9.97505 4.20278C10.0169 4.17376 10.0618 4.1495 10.1091 4.13046C10.1902 4.09631 10.2664 4.05152 10.3356 3.99728C10.3802 3.96413 10.4292 3.93728 10.4812 3.9175C10.5218 3.90548 10.5606 3.8883 10.5968 3.86641C10.6985 3.77629 10.8279 3.73553 10.9354 3.65173C11.0116 3.59859 11.0941 3.55484 11.1809 3.52143C11.2123 3.51275 11.2415 3.49792 11.267 3.4778C11.33 3.42348 11.4016 3.38002 11.4791 3.34922C11.5476 3.32107 11.6111 3.28232 11.6674 3.23442C11.707 3.20263 11.752 3.17814 11.8003 3.16209C11.8863 3.12782 11.9666 3.08079 12.0384 3.02261C12.0609 3.0068 12.0849 2.99315 12.11 2.98185C12.1764 2.94909 12.2398 2.91068 12.2995 2.86705C12.3406 2.83658 12.3862 2.81275 12.4347 2.79645C12.5127 2.76672 12.585 2.72401 12.6485 2.67016C12.6663 2.6556 12.6857 2.64308 12.7063 2.63285C12.9016 2.52781 13.1004 2.4285 13.2916 2.31657C13.3789 2.26491 13.465 2.20866 13.5505 2.15585C13.648 2.0942 13.7498 2.03935 13.855 1.99168C13.9497 1.94978 14.0179 1.86999 14.1138 1.82981C14.2081 1.78998 14.2973 1.73931 14.3796 1.67884C14.4374 1.63637 14.5137 1.6157 14.5772 1.57839C14.7205 1.49344 14.8603 1.40618 15.0031 1.31779C15.0504 1.28909 15.1013 1.26613 15.1504 1.2403C15.227 1.20699 15.299 1.16417 15.3648 1.11286C15.4068 1.08405 15.4524 1.06088 15.5005 1.04398C15.5793 1.0164 15.6519 0.973903 15.7143 0.918847C15.7272 0.905574 15.7423 0.894518 15.7588 0.886129C15.8414 0.844216 15.9209 0.796649 15.9969 0.743773C16.0723 0.698684 16.1516 0.660268 16.2338 0.62897C16.2514 0.623362 16.2681 0.614822 16.2829 0.603713C16.3606 0.537664 16.4486 0.484551 16.5435 0.446434C16.6059 0.415437 16.6631 0.374108 16.7232 0.341389C16.7832 0.30867 16.8543 0.298912 16.9161 0.265619C16.9625 0.234276 17.0159 0.214579 17.0716 0.208217C17.0942 0.204061 17.1154 0.194398 17.1334 0.180091C17.2249 0.135219 17.3195 0.0968551 17.4165 0.0652883C17.4658 0.0510044 17.5175 0.0467099 17.5685 0.0526599C17.6615 0.0526599 17.7551 0.0601216 17.8424 0.0136265C17.8683 0.00303771 17.8964 -0.00147911 17.9244 0.000424414C18.022 0.000424414 18.1203 0.000424414 18.2179 0.000424414C18.246 -0.00109603 18.2741 0.00381361 18.3 0.0147748C18.3724 0.0471974 18.4521 0.0600681 18.5311 0.0520862C18.5965 0.0452789 18.6624 0.0584974 18.72 0.0899705C18.7278 0.095025 18.7368 0.0979921 18.746 0.0985812C18.8587 0.0985812 18.9494 0.155982 19.0436 0.205922C19.1107 0.236212 19.1798 0.261911 19.2504 0.282839C19.366 0.327038 19.4764 0.390754 19.589 0.445859C19.6362 0.466071 19.6795 0.494013 19.7173 0.528517C19.7682 0.578457 19.8392 0.593381 19.8987 0.62897C20.0536 0.720812 20.2159 0.801174 20.361 0.90507C20.439 0.962472 20.5343 0.990025 20.6169 1.04341C20.7677 1.14271 20.9405 1.20413 21.0832 1.31721C21.1389 1.35901 21.2009 1.39175 21.267 1.41422C21.3304 1.43085 21.388 1.46463 21.4334 1.5118C21.4388 1.51931 21.4459 1.52541 21.4542 1.5296C21.6229 1.59733 21.7535 1.73222 21.9262 1.79307C21.9535 1.7998 21.9791 1.81212 22.0013 1.82923C22.0845 1.90673 22.1903 1.94404 22.2862 2.00144C22.2992 2.00632 22.3118 2.01227 22.3238 2.01923C22.4318 2.1082 22.5653 2.1547 22.6785 2.23506C22.7605 2.28746 22.8456 2.33481 22.9333 2.37684C22.946 2.38316 22.9628 2.38373 22.972 2.39292C23.0553 2.47959 23.1731 2.50772 23.2737 2.56225C23.3237 2.58637 23.3707 2.61644 23.4135 2.6518C23.4352 2.66905 23.4588 2.68369 23.484 2.69542L23.9104 2.93019C23.9321 2.93886 23.9526 2.95003 23.9716 2.96349C24.0456 3.03696 24.145 3.07255 24.2316 3.12249C24.3726 3.2017 24.5205 3.27116 24.6552 3.36013C24.81 3.46345 24.9822 3.53233 25.133 3.64197C25.1821 3.67698 25.2439 3.69248 25.2931 3.72692C25.5178 3.8842 25.7674 3.99728 26.0038 4.1339C26.0835 4.1804 26.1569 4.23665 26.2349 4.28487C26.3222 4.32726 26.4006 4.38569 26.466 4.45707C26.5879 4.5007 26.6544 4.62124 26.7711 4.6729C26.7967 4.68441 26.8173 4.70482 26.8289 4.7303C26.8574 4.7883 26.8966 4.84048 26.9444 4.88414C26.9647 4.90315 26.9819 4.92524 26.9953 4.94958C27.0252 5.00731 27.0653 5.05923 27.1137 5.10284C27.1835 5.17127 27.2325 5.25778 27.2553 5.35253C27.2751 5.41028 27.3027 5.46511 27.3373 5.51555C27.3873 5.60403 27.425 5.69884 27.4494 5.79739C27.459 5.8567 27.4761 5.91456 27.5003 5.9696C27.5185 6.02231 27.5239 6.07859 27.5159 6.13377C27.5159 6.22159 27.5072 6.30941 27.558 6.39035C27.5682 6.41625 27.5722 6.44417 27.5696 6.47186C27.5696 6.51836 27.5696 6.56428 27.5696 6.61077C27.5696 9.21297 27.5696 11.8152 27.5696 14.4174C27.5696 14.5138 27.5765 14.6102 27.5286 14.7044C27.5146 14.7487 27.5101 14.7954 27.5153 14.8416C27.5153 14.938 27.5257 15.0367 27.4685 15.1246C27.4645 15.133 27.4624 15.1422 27.4621 15.1515C27.4337 15.2971 27.3799 15.4365 27.3032 15.5637C27.2969 15.5757 27.2847 15.5866 27.2818 15.5993C27.2501 15.756 27.1322 15.8593 27.0507 15.9856C26.9872 16.0832 26.9022 16.1624 26.8421 16.2611C26.8338 16.2776 26.821 16.2915 26.8052 16.3013C26.7377 16.3424 26.677 16.3937 26.6255 16.4534C26.613 16.4673 26.5991 16.4798 26.5839 16.4907C26.455 16.5726 26.331 16.6617 26.2123 16.7576C26.205 16.7634 26.1968 16.7681 26.1881 16.7714C26.0419 16.8288 25.9182 16.9333 25.7721 16.9947C25.7109 17.0183 25.6551 17.0538 25.608 17.0992C25.5946 17.1121 25.5794 17.1232 25.5629 17.1319C25.4288 17.2054 25.2936 17.2765 25.1584 17.3512C25.0895 17.3794 25.026 17.4192 24.9707 17.4688C24.9572 17.4817 24.9416 17.492 24.9244 17.4992C24.7982 17.5592 24.6758 17.6268 24.5581 17.7019C24.5345 17.717 24.5093 17.7295 24.483 17.7392C24.4764 17.7417 24.4694 17.7427 24.4625 17.7423C24.4555 17.7419 24.4487 17.7399 24.4425 17.7367C24.4363 17.7334 24.4309 17.7289 24.4266 17.7234C24.4223 17.7179 24.4193 17.7115 24.4177 17.7047C24.4106 17.6592 24.4069 17.6131 24.4067 17.567C24.4067 17.1962 24.4067 16.8259 24.4067 16.4551V15.6636C24.4067 15.6262 24.4067 15.5895 24.4102 15.5522C24.4105 15.5359 24.4152 15.52 24.4239 15.5062C24.4325 15.4923 24.4448 15.4811 24.4593 15.4736L24.4951 15.4517L24.9574 15.1992C24.9785 15.1896 24.999 15.1787 25.0186 15.1665C25.1163 15.0967 25.2189 15.0337 25.3254 14.9782C25.3893 14.9388 25.4404 14.882 25.4728 14.8146C25.5785 14.6102 25.5797 14.6108 25.5797 14.3789V6.61192C25.5797 6.57518 25.5797 6.53787 25.5797 6.50056C25.5826 6.43994 25.5669 6.37986 25.5346 6.32836C25.4843 6.2457 25.4537 6.15156 25.3768 6.08498C25.3376 6.04562 25.2908 6.0144 25.2393 5.99313C25.178 5.97105 25.1216 5.93754 25.0729 5.8944C25.0241 5.85936 24.9716 5.82972 24.9163 5.806C24.8435 5.76697 24.7615 5.74229 24.7043 5.67685C24.695 5.66622 24.6833 5.65795 24.6702 5.65274C24.4893 5.58903 24.3513 5.44667 24.1698 5.38353C24.1651 5.38249 24.1608 5.38032 24.1571 5.37721C24.067 5.28422 23.941 5.2538 23.8312 5.19468C23.8095 5.18631 23.789 5.17532 23.77 5.16196C23.6758 5.07586 23.555 5.0351 23.4493 4.97024C23.3436 4.90538 23.2136 4.84109 23.1026 4.76359C23.0253 4.71272 22.9446 4.66708 22.8611 4.62698C22.7219 4.55408 22.5919 4.46339 22.4457 4.40197C22.344 4.30955 22.2105 4.27224 22.099 4.20049C21.9875 4.12873 21.8609 4.07478 21.7587 3.98638C21.7024 3.9454 21.6403 3.91308 21.5744 3.89052C21.5096 3.86519 21.4487 3.83099 21.3935 3.78892C21.3402 3.7523 21.2835 3.72078 21.2242 3.69478C21.1515 3.66364 21.0837 3.62206 21.0231 3.57137C21.0138 3.56088 21.0024 3.55246 20.9896 3.54668C20.8249 3.48928 20.6967 3.37161 20.5413 3.29814C20.3951 3.22925 20.2639 3.12995 20.1131 3.06853C19.9207 2.92216 19.6855 2.84524 19.4914 2.70575C19.3435 2.59899 19.1696 2.54159 19.0263 2.43023C18.9793 2.40022 18.9298 2.37429 18.8783 2.35273C18.805 2.32327 18.7373 2.28174 18.6779 2.2299C18.6642 2.21733 18.6483 2.20741 18.631 2.20062C18.5155 2.14322 18.3953 2.09041 18.2792 2.03186C18.2381 2.00994 18.1923 1.9985 18.1457 1.99857C18.0879 1.99857 18.033 2.00259 17.9781 1.99857C17.9338 1.99401 17.8889 1.99832 17.8463 2.01124C17.8036 2.02415 17.764 2.04541 17.7297 2.07376C17.6338 2.15126 17.5188 2.18857 17.4154 2.24999C17.3979 2.25635 17.3813 2.26463 17.3657 2.27467C17.2882 2.35159 17.186 2.38947 17.0929 2.43941C16.9514 2.52691 16.8052 2.60681 16.655 2.67877C16.5596 2.77865 16.4187 2.80678 16.3147 2.89346C16.2868 2.90974 16.2578 2.92413 16.228 2.93651C16.1292 2.9877 16.0338 3.04522 15.9426 3.10871C15.8928 3.14285 15.8391 3.17081 15.7825 3.19194C15.7117 3.21692 15.6469 3.25599 15.5918 3.30675C15.5742 3.32057 15.5548 3.33196 15.534 3.34061C15.4645 3.37717 15.3974 3.41801 15.333 3.46288C15.2626 3.5072 15.1885 3.5456 15.1117 3.57768C15.0868 3.59031 15.0539 3.59318 15.0366 3.61155C14.951 3.70339 14.8291 3.73267 14.7286 3.79753C14.6994 3.81131 14.6717 3.82804 14.646 3.84747C14.6004 3.88717 14.5479 3.91829 14.4911 3.93931C14.3991 3.9715 14.3141 4.021 14.2409 4.08511C14.2181 4.10041 14.1937 4.1133 14.1681 4.12357C14.1008 4.15436 14.0374 4.19289 13.9792 4.23837C13.9468 4.2642 13.9097 4.28368 13.87 4.29577C13.778 4.32794 13.6927 4.37637 13.6181 4.4387C13.5843 4.46267 13.5481 4.48306 13.51 4.49955C13.4141 4.54601 13.3213 4.59855 13.2321 4.65683C13.162 4.70138 13.0882 4.73979 13.0114 4.77163C12.9987 4.77795 12.9808 4.77737 12.9727 4.78655C12.8762 4.89275 12.7323 4.92374 12.6219 5.00985C12.5442 5.06003 12.462 5.10307 12.3764 5.13842C12.3591 5.14436 12.3429 5.15308 12.3284 5.16426C12.2505 5.23065 12.1621 5.28379 12.0667 5.32154C11.9141 5.39903 11.7778 5.5012 11.6166 5.56721C11.4363 5.70785 11.2254 5.79682 11.0324 5.91162C10.9167 5.97041 10.8106 6.04649 10.7181 6.13721C10.6366 6.22963 10.5661 6.32377 10.5621 6.45234C10.563 6.46635 10.5598 6.48032 10.5528 6.49252C10.4991 6.566 10.506 6.65038 10.506 6.73304C10.506 7.33537 10.506 7.93751 10.506 8.53946C10.5059 8.58111 10.5086 8.62274 10.5141 8.66402C10.5149 8.66868 10.5166 8.67311 10.5193 8.67701C10.522 8.6809 10.5255 8.68414 10.5296 8.68651C10.5337 8.68888 10.5383 8.6903 10.543 8.69068C10.5477 8.69106 10.5525 8.69039 10.5569 8.6887C10.5872 8.67731 10.6164 8.66329 10.6441 8.6468C11.2377 8.3066 11.8313 7.96621 12.4249 7.62563C12.8385 7.39239 13.3069 7.27221 13.7824 7.27735C14.2579 7.2825 14.7236 7.41277 15.1319 7.6549C15.7247 7.99587 16.3181 8.33645 16.9121 8.67665C17.0277 8.74381 17.0444 8.73405 17.0456 8.6049C17.0456 8.43269 17.0456 8.26049 17.0456 8.08829C17.0456 7.1293 17.0456 6.1705 17.0456 5.2119C17.0438 5.09132 17.0611 4.97122 17.097 4.85601C17.1565 4.67664 17.2679 4.51863 17.4172 4.40167C17.5665 4.28471 17.7471 4.21396 17.9365 4.19823C18.126 4.18251 18.3159 4.2225 18.4827 4.31323C18.6494 4.40396 18.7856 4.54142 18.8743 4.70849C18.9486 4.84318 18.9883 4.99402 18.9899 5.14761C18.9899 5.20501 18.9899 5.26815 18.9899 5.32842V14.0821C18.9854 14.1784 18.9931 14.2748 19.013 14.3691C19.0325 14.4415 19.0303 14.5179 19.0066 14.589C18.9863 14.6553 18.9775 14.7246 18.9806 14.7939C18.9806 14.845 18.9806 14.8961 18.9806 14.9472C18.9842 15.0261 18.9656 15.1044 18.9269 15.1733C18.8801 15.2682 18.8433 15.3677 18.8171 15.4701C18.786 15.5667 18.7395 15.6578 18.6796 15.7399C18.627 15.8157 18.5842 15.8972 18.5282 15.9695C18.4851 16.0297 18.4384 16.0872 18.3884 16.1417C18.3497 16.1819 18.3104 16.2215 18.2728 16.2611C18.2362 16.3094 18.1862 16.3461 18.1289 16.3667C18.1154 16.3701 18.1032 16.3773 18.0937 16.3874C18.0122 16.485 17.8886 16.5303 17.8048 16.6227C17.7903 16.6408 17.7719 16.6555 17.7511 16.6658C17.5875 16.7232 17.4622 16.8489 17.3033 16.9143C17.2502 16.9325 17.2021 16.9628 17.1629 17.0027C17.1243 17.0367 17.0781 17.0611 17.0282 17.0739C16.9461 17.105 16.8693 17.1486 16.8006 17.2031C16.7249 17.2662 16.6272 17.2915 16.5458 17.3448C16.4221 17.4252 16.2817 17.478 16.1673 17.5744C16.1573 17.5842 16.1458 17.5923 16.1332 17.5986C15.9322 17.6847 15.7577 17.8184 15.5595 17.9085C15.5217 17.9261 15.4865 17.9487 15.4549 17.9757C15.4378 17.9921 15.4183 18.0058 15.3971 18.0164C15.2238 18.0842 15.0764 18.1995 14.9106 18.2816C14.8442 18.3149 14.7997 18.3792 14.7246 18.4022C14.6724 18.4221 14.6218 18.4459 14.5732 18.4733C14.5513 18.4804 14.5307 18.4907 14.5119 18.5038C14.4403 18.5622 14.3607 18.6103 14.2756 18.6467C14.2143 18.6794 14.1547 18.7152 14.0971 18.754C14.0168 18.8074 13.9237 18.8401 13.8394 18.8901C13.729 18.9572 13.6181 19.0227 13.5094 19.0921C13.4519 19.131 13.3912 19.165 13.328 19.1937C13.2509 19.2233 13.1797 19.2662 13.1177 19.3206C13.0925 19.3409 13.065 19.358 13.0356 19.3717C12.8762 19.4555 12.7167 19.5399 12.5607 19.63C12.4925 19.669 12.4365 19.7264 12.3642 19.7603C12.3173 19.7802 12.2719 19.8036 12.2285 19.8303C12.1083 19.9107 11.9765 19.9675 11.8506 20.0358C11.8335 20.0429 11.8174 20.0522 11.8026 20.0634C11.7281 20.1265 11.6427 20.1758 11.5507 20.2092C11.4892 20.2305 11.4332 20.265 11.3866 20.3102C11.3693 20.3297 11.3381 20.3355 11.3144 20.3504C11.2428 20.3832 11.1758 20.425 11.115 20.4749C11.0862 20.4991 11.0536 20.5185 11.0186 20.5323C10.9099 20.5846 10.8042 20.6471 10.6915 20.6862C10.4968 20.7585 10.3067 20.844 10.1074 20.9043C10.0531 20.9175 9.99732 20.9231 9.94154 20.9209C9.85811 20.9221 9.77495 20.9308 9.69308 20.9468C9.55066 20.9735 9.40447 20.9735 9.26205 20.9468C9.19407 20.9318 9.1248 20.9233 9.05519 20.9215C8.98532 20.9289 8.91479 20.9158 8.85239 20.8836C8.84032 20.8765 8.82658 20.8725 8.81252 20.8722C8.72007 20.8722 8.64669 20.8148 8.56407 20.7901C8.44042 20.7499 8.32832 20.6856 8.2041 20.6483C8.14578 20.6328 8.09077 20.6069 8.04174 20.5719C7.98021 20.5295 7.91593 20.4912 7.84933 20.4571C7.76902 20.4112 7.68003 20.3802 7.61359 20.3119C7.60307 20.303 7.59117 20.2958 7.57834 20.2907L7.1161 20.0381C7.09869 20.0318 7.08234 20.0229 7.06757 20.0117C6.9913 19.9319 6.88672 19.9003 6.79369 19.8498C6.70067 19.7993 6.60186 19.7385 6.50479 19.6828C6.42045 19.6442 6.34111 19.5956 6.26847 19.5381C6.24572 19.5225 6.22054 19.5107 6.19394 19.5031C6.13642 19.4835 6.08353 19.4525 6.03851 19.4119C6.02632 19.3977 6.01139 19.3862 5.9946 19.378C5.85498 19.3138 5.71986 19.2403 5.59014 19.1581C5.48613 19.1007 5.36942 19.06 5.28044 18.9733C5.24715 18.9482 5.20985 18.9288 5.17008 18.9159C5.12192 18.8983 5.07831 18.8702 5.04239 18.8338C5.0188 18.8116 4.99059 18.7947 4.95976 18.7845C4.85094 18.7431 4.74935 18.685 4.65873 18.6123C4.60961 18.5675 4.53392 18.5549 4.47383 18.5181C4.32938 18.4349 4.17858 18.3614 4.03817 18.2736C3.92261 18.203 3.80705 18.137 3.69496 18.0647C3.61349 18.0124 3.52162 17.9722 3.43726 17.9269C3.41959 17.9212 3.4027 17.9132 3.38699 17.9034C3.29064 17.823 3.1807 17.7602 3.06227 17.7179C3.04471 17.7119 3.0283 17.703 3.01374 17.6915C2.9394 17.6283 2.85506 17.5777 2.76413 17.5417C2.7379 17.5323 2.71318 17.5192 2.69075 17.5027C2.58501 17.4103 2.44865 17.3695 2.33713 17.2846C2.25971 17.2337 2.17837 17.189 2.09388 17.1508C2.0777 17.1416 2.05517 17.1399 2.04303 17.1279C1.95116 17.0366 1.82578 17.0062 1.71716 16.9453C1.69184 16.934 1.66798 16.9198 1.64609 16.9028C1.60418 16.8661 1.55731 16.8354 1.50684 16.8116C1.45368 16.7823 1.40688 16.741 1.35488 16.7157C1.25318 16.6652 1.18154 16.5791 1.08215 16.5269C1.04262 16.5024 1.00665 16.4727 0.975262 16.4385C0.933081 16.3891 0.883597 16.3463 0.828501 16.3116C0.807673 16.3008 0.791021 16.2834 0.781122 16.2622C0.751106 16.2153 0.714313 16.1729 0.671918 16.1365C0.622022 16.095 0.582473 16.0425 0.556358 15.9833C0.550833 15.9705 0.542776 15.959 0.532668 15.9494C0.392263 15.8019 0.318305 15.6194 0.250125 15.4328C0.240302 15.407 0.223546 15.384 0.212568 15.3587C0.154788 15.2233 0.0860297 15.0907 0.0906521 14.9368C0.0473172 14.822 0.0594512 14.6998 0.0565622 14.5798C0.0583917 14.5426 0.0502152 14.5055 0.0328723 14.4725C0.00869472 14.4272 -0.00174207 14.376 0.00282741 14.3249C0.00282741 14.2928 0.00282741 14.2601 0.00282741 14.2279V6.78011C-0.00647336 6.6924 0.00726264 6.6038 0.0426956 6.52295C0.0564392 6.48353 0.0613686 6.44161 0.0571406 6.40011C0.0506229 6.29842 0.0601754 6.19635 0.0854522 6.0976C0.0914515 6.07909 0.0934214 6.05953 0.0912305 6.0402C0.0858949 5.92856 0.117558 5.81827 0.181367 5.72622C0.224065 5.66501 0.252127 5.59492 0.263414 5.52129C0.269289 5.4991 0.27907 5.47811 0.292304 5.4593L0.431554 5.18779C0.435465 5.17943 0.44031 5.17154 0.445999 5.16426C0.514757 5.07758 0.583514 4.99205 0.654006 4.90538C0.686192 4.87114 0.713241 4.83248 0.73432 4.79057C0.747971 4.75839 0.76815 4.72934 0.793599 4.70524C0.819048 4.68115 0.849221 4.66252 0.882237 4.65051C0.891195 4.64834 0.899635 4.64444 0.907082 4.63903C0.987973 4.56958 1.08042 4.51218 1.15669 4.44215C1.25414 4.36439 1.3577 4.29452 1.46639 4.23321C1.53225 4.19899 1.59457 4.15842 1.65244 4.11209C1.67005 4.09761 1.68947 4.08546 1.71022 4.07593C1.86507 3.99155 2.01992 3.90831 2.17246 3.82393C2.19312 3.81424 2.21252 3.8021 2.23024 3.78777C2.29765 3.73085 2.37474 3.68633 2.45789 3.65632C2.52305 3.63168 2.5836 3.59637 2.63701 3.55185C2.68547 3.51612 2.73827 3.48661 2.79417 3.46403C2.86659 3.4325 2.93425 3.39116 2.99524 3.34119C3.0045 3.33066 3.01593 3.32224 3.02876 3.3165C3.19112 3.26542 3.31015 3.13799 3.46615 3.07542C3.53122 3.05643 3.59122 3.02329 3.6418 2.97841C3.68199 2.94649 3.72843 2.92323 3.77816 2.9101C3.85539 2.87868 3.92806 2.83718 3.99426 2.78669C4.06751 2.7382 4.14373 2.6943 4.22249 2.65524C4.36116 2.57201 4.51139 2.51001 4.63966 2.40612C4.67075 2.38596 4.70363 2.36867 4.73789 2.35446C4.91122 2.25974 5.0915 2.16905 5.26253 2.06745C5.3492 2.01579 5.43587 1.96068 5.52196 1.9073C5.60805 1.85392 5.70743 1.80283 5.80219 1.75346C5.91775 1.69606 6.0154 1.60766 6.13269 1.54969C6.28696 1.47392 6.43835 1.39298 6.58453 1.30344C6.69547 1.2357 6.80583 1.16854 6.91734 1.10253C6.98148 1.06465 7.04735 1.03078 7.11264 0.996339C7.18526 0.964966 7.25297 0.923404 7.31371 0.872926C7.34671 0.847329 7.3841 0.827882 7.42407 0.815524C7.51484 0.779335 7.60003 0.730641 7.67715 0.670873C7.73082 0.634505 7.7879 0.603364 7.8476 0.577883C7.91564 0.548526 7.97923 0.509887 8.03654 0.46308C8.08209 0.422543 8.13886 0.396544 8.19948 0.388458C8.25911 0.377767 8.31604 0.355533 8.36704 0.32302C8.48722 0.248972 8.623 0.216254 8.75185 0.164593C8.86421 0.11902 8.98551 0.0993921 9.10662 0.107191C9.13917 0.110177 9.17199 0.107654 9.20369 0.0997286C9.36432 0.0532335 9.52899 0.0675841 9.6902 0.0784904C9.80575 0.0859526 9.92131 0.111784 10.0369 0.11121C10.0646 0.113618 10.0919 0.119997 10.1178 0.130151C10.1403 0.136465 10.1611 0.153687 10.1831 0.154261C10.2951 0.154261 10.3847 0.21568 10.4818 0.261027C10.5788 0.306374 10.6967 0.346555 10.8025 0.393624C10.9368 0.445913 11.0634 0.516212 11.1786 0.602566C11.2058 0.620202 11.2346 0.635195 11.2647 0.647339C11.4479 0.747217 11.6339 0.843077 11.8124 0.950418C11.8997 1.00265 11.9858 1.05546 12.0719 1.10999C12.1776 1.1783 12.2938 1.2248 12.4001 1.29253C12.4197 1.30458 12.4422 1.31319 12.4607 1.32697C12.5058 1.36084 12.5058 1.39585 12.4607 1.42628C12.4157 1.4567 12.3735 1.48023 12.3296 1.50549L11.3127 2.09041L10.7198 2.43137C10.6731 2.4688 10.6211 2.49934 10.5656 2.52207C10.5078 2.5347 10.4783 2.46467 10.4252 2.44171C10.2807 2.38832 10.1663 2.28041 10.0259 2.21784C9.97054 2.19355 9.91867 2.16209 9.87162 2.12428C9.79764 2.07531 9.71032 2.05007 9.62144 2.05195C9.52899 2.04449 9.43481 2.05195 9.34178 2.05195C9.31843 2.05132 9.29515 2.05482 9.27302 2.06228C9.15041 2.10643 9.03393 2.16584 8.92635 2.23908C8.87365 2.27686 8.81865 2.31136 8.76167 2.3424C8.62416 2.41817 8.48086 2.48763 8.34912 2.57201C8.11801 2.71953 7.87418 2.84294 7.63612 2.97669C7.61597 2.98835 7.59666 3.00139 7.57834 3.01572C7.55928 3.0295 7.54425 3.05246 7.52345 3.05877C7.3738 3.10297 7.26344 3.2172 7.12362 3.28034C7.05444 3.30819 6.99025 3.34696 6.93352 3.39514C6.89239 3.42571 6.84626 3.44902 6.79716 3.46403C6.7153 3.49867 6.63775 3.54258 6.56604 3.5949C6.49208 3.64886 6.40426 3.68445 6.3251 3.73266C6.19567 3.81303 6.05064 3.86928 5.93393 3.97088C5.9232 3.97967 5.91135 3.987 5.89868 3.99269C5.71841 4.06789 5.56067 4.18614 5.38386 4.26879C5.32507 4.2965 5.27011 4.33161 5.22035 4.37326C5.17078 4.40759 5.11818 4.43737 5.06319 4.46224C4.92343 4.52618 4.78829 4.59964 4.65873 4.68209C4.54317 4.76532 4.41663 4.81755 4.29934 4.89045C4.18159 4.96465 4.05945 5.03174 3.93359 5.09136C3.83999 5.19353 3.70247 5.22568 3.59384 5.30604C3.54254 5.33767 3.4895 5.36642 3.43495 5.39214C3.35985 5.42859 3.28861 5.47244 3.22232 5.52302C3.15985 5.57169 3.08841 5.60777 3.012 5.62921C2.96349 5.64531 2.9187 5.67088 2.88026 5.7044C2.80631 5.76984 2.70692 5.79854 2.62834 5.85135C2.59907 5.86521 2.57104 5.88154 2.54456 5.90014C2.49697 5.94473 2.43961 5.97774 2.377 5.99658C2.33274 6.01074 2.29293 6.03606 2.26144 6.07005C2.15895 6.17012 2.08173 6.29286 2.0361 6.42824C2.0077 6.51573 1.99384 6.60724 1.99508 6.69917C1.99508 9.24664 1.99508 11.7939 1.99508 14.341C1.99401 14.4887 2.03616 14.6335 2.11641 14.7578C2.17419 14.8473 2.22677 14.93 2.32904 14.9667C2.42727 15.0683 2.5723 15.0993 2.67572 15.1963C2.72625 15.2294 2.78106 15.2554 2.83866 15.2738C2.86482 15.2836 2.89047 15.2947 2.91551 15.3071C3.03107 15.3794 3.15183 15.4512 3.26681 15.5275C3.29609 15.5502 3.32788 15.5694 3.36157 15.5849C3.46819 15.6188 3.56656 15.6743 3.65047 15.7479C3.65667 15.7549 3.66437 15.7604 3.673 15.764C3.8423 15.8312 3.98732 15.9425 4.14911 16.0229C4.23108 16.0561 4.30701 16.1024 4.37387 16.1601C4.37675 16.1637 4.38028 16.1668 4.38427 16.1693C4.52757 16.2267 4.6437 16.3306 4.78526 16.3897C4.85879 16.4192 4.92737 16.4596 4.98865 16.5096C5.06723 16.5751 5.17123 16.6003 5.25444 16.6577C5.40698 16.7639 5.59129 16.8144 5.7317 16.9396C5.73855 16.9459 5.74634 16.9511 5.75481 16.9551C5.92815 17.0263 6.07087 17.1485 6.24305 17.2197C6.26411 17.2276 6.28365 17.2391 6.30083 17.2536C6.37496 17.3168 6.45989 17.3664 6.55159 17.3999C6.60454 17.4183 6.65326 17.447 6.69489 17.4843C6.72061 17.5039 6.7483 17.5209 6.77751 17.5348C6.8488 17.5683 6.91558 17.6105 6.97628 17.6605C6.99468 17.6743 7.01543 17.6846 7.03752 17.691C7.1472 17.7303 7.24952 17.7876 7.34029 17.8603C7.35499 17.8714 7.37111 17.8805 7.38825 17.8873C7.58874 17.9843 7.77133 18.1169 7.97529 18.2047C8.07063 18.2954 8.20005 18.3327 8.30348 18.4114C8.34567 18.4411 8.39055 18.4668 8.43753 18.4883C8.52833 18.5243 8.61233 18.5754 8.68598 18.6392C8.69207 18.6463 8.6998 18.6518 8.70852 18.6553C8.89861 18.7317 9.06271 18.8562 9.2476 18.9423C9.28042 18.9597 9.31676 18.9695 9.35392 18.971H9.60526C9.64241 18.9692 9.67863 18.9588 9.711 18.9406C9.81038 18.8895 9.91091 18.8413 10.012 18.7942C10.0631 18.7721 10.1108 18.743 10.1536 18.7075C10.2275 18.6433 10.3269 18.6157 10.4084 18.5669C10.4474 18.549 10.4841 18.5264 10.5176 18.4998C10.53 18.4861 10.5446 18.4746 10.5609 18.4659C10.7343 18.397 10.8735 18.2696 11.0446 18.1972C11.0708 18.1876 11.0949 18.173 11.1156 18.1542C11.1609 18.1141 11.2134 18.0829 11.2705 18.0624C11.3617 18.0283 11.4465 17.9792 11.5212 17.9171C11.5615 17.886 11.6063 17.8612 11.6541 17.8437C11.7312 17.811 11.8041 17.7693 11.8714 17.7197C11.8895 17.7069 11.9089 17.696 11.9292 17.687C12.0045 17.6519 12.0759 17.6092 12.1424 17.5595C12.2204 17.5098 12.3012 17.4645 12.3845 17.4241C12.5142 17.3434 12.6493 17.2716 12.7889 17.2094C12.8935 17.1055 13.0408 17.071 13.1576 16.9901C13.2743 16.9092 13.4083 16.8684 13.5077 16.768C13.515 16.7622 13.5232 16.7575 13.532 16.7542C13.7232 16.6692 13.8954 16.5504 14.0815 16.4563C14.1277 16.435 14.1707 16.4074 14.2092 16.3742C14.2268 16.3592 14.2462 16.3465 14.2669 16.3363L14.717 16.0883C14.7385 16.0799 14.7589 16.0689 14.7777 16.0556C14.8638 15.9724 14.9771 15.9408 15.0793 15.8834C15.1013 15.8765 15.1221 15.8664 15.1411 15.8535C15.2087 15.7864 15.2983 15.7571 15.3775 15.7106C15.5337 15.6302 15.6841 15.5391 15.8276 15.438C15.8471 15.4259 15.8676 15.4153 15.8888 15.4064C15.9928 15.3545 16.0939 15.297 16.1916 15.2342C16.2658 15.188 16.343 15.1468 16.4227 15.1108C16.5891 15.0276 16.7359 14.9102 16.8532 14.7664C16.9371 14.6617 16.9937 14.5381 17.0178 14.4065C17.0383 14.2508 17.0464 14.0938 17.0421 13.9369C17.0421 13.015 17.0421 12.0934 17.0421 11.1719C17.0421 10.9549 17.0531 10.9859 16.8717 10.8849C15.9626 10.3644 15.0541 9.84324 14.1462 9.32127C14.0658 9.27453 13.9784 9.24081 13.8873 9.22139C13.7357 9.18836 13.5772 9.20865 13.439 9.27879C13.3176 9.33619 13.2009 9.40622 13.0836 9.47338L10.6135 10.8912C10.5933 10.9032 10.5731 10.9147 10.5557 10.9274C10.5416 10.9357 10.5298 10.9474 10.5214 10.9614C10.513 10.9755 10.5083 10.9914 10.5078 11.0077C10.5078 11.0582 10.5043 11.1093 10.5043 11.1604C10.5043 12.5687 10.5043 13.9765 10.5043 15.384C10.5068 15.4721 10.5 15.5602 10.4841 15.6469C10.3974 16.0487 10.1565 16.311 9.75491 16.4029C9.62788 16.4355 9.49544 16.4418 9.36587 16.4212C9.2363 16.4006 9.1124 16.3537 9.00192 16.2834C8.89144 16.2131 8.79676 16.1209 8.7238 16.0126C8.65085 15.9042 8.60119 15.7821 8.57793 15.6538C8.56591 15.5759 8.56108 15.4972 8.56349 15.4184C8.56349 14.6317 8.56349 13.8443 8.56349 13.0564L8.56233 10.9578Z" fill="#181717"/>
<path id="Vector_16" d="M23.2359 17.7666C23.2359 19.0631 23.2359 20.3596 23.2359 21.6561C23.2392 22.0818 23.1387 22.5019 22.943 22.8805C22.7473 23.2592 22.4622 23.5851 22.112 23.8305C21.9219 23.9648 21.7151 24.0733 21.514 24.1898C21.1275 24.4137 20.7392 24.6347 20.3515 24.8563L19.0925 25.5772C18.7169 25.7927 18.3417 26.0083 17.9669 26.2241L16.3797 27.1328C15.9966 27.3526 15.6112 27.5702 15.231 27.7952C14.9532 27.9668 14.6495 28.0929 14.3314 28.1689C13.7903 28.2911 13.2242 28.2406 12.7136 28.0248C12.5099 27.9328 12.3125 27.8277 12.1225 27.7103C11.4765 27.3406 10.8311 26.9704 10.1863 26.5995L8.84233 25.8275C8.32192 25.529 7.80094 25.2309 7.27938 24.9332L6.1417 24.2788C5.94813 24.1674 5.75399 24.0578 5.5639 23.9441C5.13578 23.6928 4.78864 23.3254 4.56315 22.8851C4.36153 22.5027 4.25737 22.0769 4.25981 21.6452C4.25981 21.0247 4.25981 20.4042 4.25981 19.7837C4.25978 19.7375 4.2621 19.6913 4.26674 19.6454C4.26746 19.6384 4.26988 19.6317 4.2738 19.6259C4.27772 19.62 4.28301 19.6152 4.28922 19.6119C4.29543 19.6086 4.30236 19.6068 4.30942 19.6067C4.31648 19.6066 4.32345 19.6083 4.32972 19.6115C4.35983 19.6241 4.38915 19.6385 4.41755 19.6545C4.94623 19.9582 5.4755 20.2601 6.00245 20.5667C6.1989 20.6815 6.1937 20.639 6.19312 20.8898C6.19312 21.1533 6.19312 21.4173 6.19312 21.6814C6.19327 21.8212 6.23334 21.9582 6.30868 22.0763C6.37429 22.1782 6.46523 22.2617 6.57273 22.3185L7.26205 22.7158L8.43787 23.3862L10.0245 24.2954C10.4567 24.543 10.8887 24.7906 11.3205 25.0382L12.8806 25.9348L13.3532 26.2058C13.4687 26.2775 13.6017 26.3165 13.7378 26.3185C13.874 26.3205 14.0081 26.2855 14.1257 26.2172C14.3303 26.1065 14.5302 25.9876 14.7312 25.8728L16.3185 24.9642C16.7584 24.712 17.1983 24.4596 17.6382 24.207L19.0306 23.4086C19.4101 23.1897 19.7889 22.971 20.1672 22.7525L20.9541 22.3002C21.0884 22.2226 21.1926 22.1026 21.25 21.9592C21.2805 21.8914 21.2974 21.8182 21.2997 21.744C21.2997 21.6837 21.2997 21.6234 21.2997 21.5631V13.9506C21.2997 13.9087 21.2997 13.8668 21.2997 13.8254C21.2993 13.6995 21.2648 13.5759 21.1999 13.4678C21.1349 13.3596 21.0418 13.2708 20.9305 13.2107C20.7068 13.0769 20.4792 12.9506 20.2533 12.8209C20.233 12.8094 20.2134 12.7962 20.1926 12.7859C20.1621 12.7734 20.1367 12.751 20.1207 12.7223C20.1048 12.6936 20.0991 12.6603 20.1048 12.628C20.1238 12.4432 20.1134 12.2578 20.114 12.073C20.114 11.6373 20.114 11.2022 20.114 10.7671C20.114 10.7481 20.114 10.7298 20.114 10.7097C20.114 10.5375 20.1308 10.5289 20.2874 10.6173C20.7276 10.8687 21.1677 11.1211 21.6076 11.3744L21.9098 11.5466C22.3194 11.7788 22.6588 12.1159 22.8925 12.5228C23.1263 12.9297 23.2458 13.3914 23.2388 13.8599C23.2388 15.161 23.2388 16.4621 23.2388 17.7632L23.2359 17.7666Z" fill="#181717"/>
<path id="Vector_17" d="M20.1575 19.0889V20.0073C20.1575 20.0349 20.1575 20.0647 20.1575 20.0905C20.1637 20.1322 20.155 20.1747 20.1329 20.2107C20.1109 20.2466 20.0768 20.2738 20.0367 20.2874C20.0041 20.3049 19.9737 20.3261 19.946 20.3506C19.9324 20.363 19.9175 20.374 19.9015 20.3833C19.6773 20.4751 19.489 20.6347 19.2659 20.7219C19.1562 20.7719 19.0428 20.8136 18.9268 20.8465C18.8542 20.8617 18.7838 20.8856 18.717 20.9177C18.6572 20.9437 18.5921 20.9555 18.5269 20.9521C18.4299 20.9521 18.3305 20.9406 18.2415 20.9958C18.1121 21.0055 17.9815 21.0296 17.8567 20.9757C17.7994 20.956 17.7386 20.948 17.6781 20.9521C17.5857 20.9521 17.4909 20.963 17.4071 20.9079C17.2338 20.9022 17.0917 20.8017 16.9357 20.7461C16.7839 20.6877 16.6379 20.6156 16.4994 20.5308C16.3839 20.4625 16.2556 20.4126 16.1464 20.3356C15.9482 20.1967 15.7194 20.1106 15.5224 19.974C15.3421 19.8489 15.1428 19.7622 14.9584 19.6462C14.9389 19.6341 14.9206 19.6203 14.9035 19.6049C14.9009 19.6026 14.8989 19.5997 14.8974 19.5965C14.896 19.5932 14.8953 19.5898 14.8953 19.5863C14.8953 19.5828 14.896 19.5793 14.8974 19.5761C14.8989 19.5729 14.9009 19.57 14.9035 19.5676C14.9171 19.5551 14.932 19.5441 14.948 19.5349L16.0372 18.9092L16.6543 18.5539C16.682 18.5378 16.7121 18.5212 16.7392 18.5063C16.771 18.4866 16.8078 18.4761 16.8452 18.4761C16.8827 18.4761 16.9195 18.4866 16.9513 18.5063C17.0853 18.5872 17.2292 18.6526 17.3557 18.7462C17.4092 18.783 17.4661 18.8147 17.5256 18.8409C17.6288 18.9024 17.7371 18.9552 17.8492 18.9988C17.9013 19.0175 17.9561 19.0279 18.0115 19.0298C18.0583 19.0298 18.1051 19.0298 18.1514 19.0298C18.2026 19.0304 18.2531 19.0173 18.2975 18.9919C18.3663 18.9534 18.4403 18.9236 18.5119 18.8903C18.5951 18.8604 18.6716 18.8144 18.7367 18.7548C18.7543 18.7406 18.7737 18.7288 18.7944 18.7198C18.8709 18.6859 18.9425 18.6423 19.0077 18.5901C19.0372 18.5674 19.0707 18.5503 19.1065 18.5395C19.2038 18.5078 19.2938 18.4571 19.3711 18.3903C19.3855 18.3787 19.4015 18.369 19.4185 18.3616C19.5918 18.2686 19.7599 18.1739 19.9321 18.0826C19.9905 18.0543 20.0461 18.0205 20.098 17.9816C20.1028 17.9783 20.1084 17.9762 20.1142 17.9757C20.12 17.9752 20.1259 17.9762 20.1312 17.9787C20.1365 17.9811 20.1411 17.9849 20.1445 17.9896C20.1479 17.9944 20.15 17.9999 20.1505 18.0057C20.1546 18.0465 20.1575 18.0884 20.158 18.1297C20.158 18.45 20.1575 18.7692 20.1575 19.0889Z" fill="#181717"/>
<path id="Vector_18" d="M7.45513 11.6007V12.4755C7.45513 12.5174 7.45513 12.5587 7.45513 12.6006C7.45767 12.633 7.45017 12.6653 7.43364 12.6933C7.41711 12.7214 7.39235 12.7437 7.36268 12.7573C7.18009 12.86 6.99924 12.9651 6.81781 13.0696C6.72074 13.127 6.62252 13.178 6.52892 13.2383C6.44561 13.2901 6.37414 13.3586 6.31911 13.4395C6.26408 13.5204 6.22671 13.6118 6.20939 13.7079C6.19828 13.781 6.19383 13.8549 6.1961 13.9289C6.1961 14.5075 6.1961 15.0859 6.1961 15.6641C6.1959 15.7149 6.19281 15.7657 6.18686 15.8162C6.18619 15.8232 6.18385 15.8299 6.18005 15.8358C6.17625 15.8417 6.17108 15.8467 6.16499 15.8502C6.15889 15.8537 6.15204 15.8558 6.14499 15.8561C6.13794 15.8565 6.1309 15.8552 6.12446 15.8524C6.09856 15.8424 6.07345 15.8305 6.04934 15.8168L4.43151 14.9041C4.39511 14.8834 4.35928 14.8616 4.32288 14.8404C4.30218 14.8294 4.28506 14.8127 4.27351 14.7924C4.26195 14.7721 4.25643 14.7489 4.25759 14.7256C4.25759 14.721 4.25759 14.7164 4.25759 14.7118C4.25759 14.3554 4.24141 13.9977 4.2651 13.643C4.30284 13.098 4.51387 12.579 4.86774 12.1609C5.08542 11.9003 5.34991 11.6821 5.64777 11.5174C6.19321 11.2063 6.73769 10.894 7.28121 10.5806C7.31703 10.5594 7.35407 10.5402 7.39215 10.5232C7.39855 10.5202 7.40561 10.5188 7.4127 10.5191C7.41979 10.5194 7.42669 10.5215 7.43276 10.5252C7.43884 10.5288 7.44391 10.5339 7.44751 10.54C7.45111 10.546 7.45313 10.5529 7.45339 10.56C7.45686 10.6013 7.45859 10.6432 7.45859 10.6845C7.45859 10.9899 7.45859 11.2953 7.45859 11.603L7.45513 11.6007Z" fill="#181717"/>
</g>
</g>
</svg>
