<svg width="100" height="36" viewBox="0 0 100 36" fill="none" xmlns="http://www.w3.org/2000/svg">
<path d="M45.8067 22.2811V14.8344H39.3068V22.2811H35.8186V5.68848H39.3068V11.9357H45.8067V5.68848H49.3196V22.2811H45.8067Z" fill="white"/>
<path d="M50.3198 16.1342C50.3198 12.2363 52.7545 9.66211 56.6691 9.66211C60.5338 9.66211 62.9432 12.2111 62.9432 16.1342C62.9432 20.0327 60.5091 22.6063 56.6691 22.6063C52.6786 22.6063 50.3198 19.9577 50.3198 16.1342ZM59.6556 16.1342C59.6556 13.6356 58.6515 12.4109 56.6691 12.4109C54.6868 12.4109 53.6827 13.6356 53.6827 16.1342C53.6827 18.6329 54.6868 19.8828 56.6691 19.8828C58.6515 19.8828 59.6556 18.6335 59.6556 16.1342Z" fill="white"/>
<path d="M71.8688 22.2818V14.8351C71.8688 12.9357 71.3165 12.4109 69.7606 12.4109C68.0547 12.4109 67.2259 13.3609 67.2259 15.2352V22.2818H63.9636V9.98718H67.0753V11.7865C67.8283 10.4124 69.083 9.66211 71.0659 9.66211C73.4247 9.66211 75.1564 11.0866 75.1564 13.7621V22.2818H71.8688Z" fill="white"/>
<path d="M79.4708 16.9841C79.5714 18.8332 80.6255 20.0327 82.2314 20.0327C83.2855 20.0327 84.2137 19.5056 84.4402 18.6581H87.803C87.0501 21.1825 85.0172 22.6063 82.3819 22.6063C78.2644 22.6063 76.2056 20.3578 76.2056 15.9093C76.2056 12.1116 78.3885 9.66211 82.1784 9.66211C85.9684 9.66211 87.9754 12.1116 87.9754 16.9835L79.4708 16.9841ZM84.6154 14.9341C84.5654 13.1096 83.3608 12.2351 82.0808 12.2351C80.7761 12.2351 79.6967 13.2349 79.5714 14.9341H84.6154Z" fill="white"/>
<path d="M96.7375 20.6568C96.2852 21.7562 94.9305 22.4058 93.3999 22.4058C90.8117 22.4058 88.8823 20.6568 88.8823 17.9579V9.98633H92.1446V17.4834C92.1446 19.0063 92.8505 19.7824 94.2275 19.7824C95.7081 19.7824 96.7375 18.8077 96.7375 17.4834V9.98633H99.9998V22.6055C99.9998 26.0793 97.4904 28.103 94.3281 28.103C90.7141 28.103 88.8823 26.1291 88.8823 22.9557H91.9188C91.9188 24.4048 92.7723 25.3044 94.4787 25.3044C95.6552 25.3044 96.7375 24.28 96.7375 22.6559V20.6568Z" fill="white"/>
<path d="M39.0845 32.0018L38.5087 30.1304H35.1463L34.4993 32.0018H32.4846L35.7369 22.9297H37.9457L41.1568 32.0018H39.0845ZM36.8204 24.9656H36.8069L35.6405 28.5724H37.9592L36.8204 24.9656Z" fill="white"/>
<path d="M47.184 29.5702C46.9922 31.1276 45.7134 32.1801 44.0828 32.1801C42.244 32.1801 40.9817 30.9641 40.9817 28.5592C40.9817 26.1543 42.244 25.1035 44.1381 25.1035C45.8946 25.1035 47.0881 26.0992 47.1969 27.6859H45.4004C45.304 26.9889 44.7963 26.5795 44.124 26.5795C43.3693 26.5795 42.7523 27.0574 42.7523 28.5194C42.7523 29.9813 43.3693 30.6918 44.0693 30.6918C44.7693 30.6918 45.3181 30.2953 45.3863 29.5713L47.184 29.5702Z" fill="white"/>
<path d="M51.8243 32.002C51.7644 31.8067 51.7277 31.605 51.7149 31.4011C51.2896 31.8656 50.5761 32.1801 49.6702 32.1801C48.1332 32.1801 47.4197 31.4286 47.4197 30.3357C47.4197 28.3952 48.7232 28.1767 50.5208 27.9307C51.4132 27.8077 51.6602 27.6303 51.6602 27.1658C51.6602 26.7283 51.2208 26.4688 50.5208 26.4688C49.7114 26.4688 49.382 26.8653 49.2997 27.4645H47.6397C47.6667 26.0711 48.4355 25.1006 50.6032 25.1006C52.7437 25.1006 53.4855 26.0571 53.4855 27.7515V32.0003L51.8243 32.002ZM51.7008 28.7092C51.5243 28.8849 51.2073 28.9827 50.5485 29.1057C49.5332 29.2972 49.2038 29.5836 49.2038 30.16C49.2038 30.6654 49.5055 30.9114 50.0685 30.9114C50.9873 30.9114 51.6737 30.242 51.6873 29.4472L51.7008 28.7092Z" fill="white"/>
<path d="M58.8589 32.0023L58.8454 31.1823C58.4201 31.8653 57.7866 32.178 56.9631 32.178C55.2619 32.178 54.0408 30.8391 54.0408 28.5706C54.0408 26.5353 55.0696 25.1003 56.8125 25.1003C57.6495 25.1003 58.3078 25.4418 58.8125 26.1546V22.8213H60.5689V32.0023H58.8589ZM58.8866 28.8055C58.8866 27.3412 58.3789 26.6196 57.3907 26.6196C56.3484 26.6196 55.8543 27.316 55.8543 28.696C55.8543 29.8984 56.4854 30.7319 57.3772 30.7319C58.2278 30.7319 58.8866 29.9394 58.8866 28.8055Z" fill="white"/>
<path d="M62.9547 29.1059C63.0094 30.1168 63.5859 30.7728 64.4641 30.7728C65.0406 30.7728 65.5482 30.4858 65.6718 30.0213H67.51C67.0982 31.4013 65.9871 32.1803 64.5465 32.1803C62.2959 32.1803 61.1707 30.9503 61.1707 28.5184C61.1707 26.4415 62.3648 25.1025 64.4365 25.1025C66.5082 25.1025 67.6064 26.4415 67.6064 29.1059H62.9547ZM65.7653 27.9854C65.7376 26.9897 65.0788 26.51 64.3794 26.51C63.6659 26.51 63.0759 27.0565 63.0071 27.9854H65.7653Z" fill="white"/>
<path d="M76.0688 32.0022V27.9309C76.0688 27.125 75.6435 26.551 75.01 26.551C74.3512 26.551 73.8712 27.166 73.8712 27.9854V32.0022H72.0871V27.9608C72.0871 26.8813 71.7989 26.6078 71.0171 26.6078C70.3036 26.6078 69.933 27.0453 69.933 27.9198V32.0046H68.1489V25.2806H69.8236V26.264C70.2765 25.3761 70.9077 25.1025 71.7995 25.1025C72.7189 25.1025 73.1583 25.3895 73.6818 26.1685C74.0524 25.4305 74.6559 25.1025 75.5053 25.1025C76.8641 25.1025 77.8111 26.0865 77.8111 27.3435V32.0022H76.0688Z" fill="white"/>
<path d="M82.8302 31.114C82.5837 31.7155 81.8426 32.0704 81.0067 32.0704C79.5949 32.0704 78.5361 31.114 78.5361 29.6386V25.2803H80.3202V29.3803C80.3202 30.2137 80.7043 30.6372 81.459 30.6372C82.2684 30.6372 82.8308 30.1042 82.8308 29.3803V25.2803H84.6149V32.18C84.6149 34.0788 83.2425 35.1858 81.5137 35.1858C79.5379 35.1858 78.5361 34.1064 78.5361 32.3709H80.1967C80.1967 33.1634 80.6632 33.6554 81.5961 33.6554C82.2431 33.6554 82.8314 33.0948 82.8314 32.2069L82.8302 31.114Z" fill="white"/>
<mask id="mask0_3021_787" style="mask-type:luminance" maskUnits="userSpaceOnUse" x="10" y="7" width="11" height="8">
<path d="M10.8643 9.40768V14.7968H20.7182V7.54688H10.9613L10.8643 9.40768Z" fill="white"/>
</mask>
<g mask="url(#mask0_3021_787)">
<path d="M15.7144 32.2039C15.1862 32.2043 14.6672 32.0661 14.2097 31.8033L6.47455 27.3559C6.01779 27.0923 5.6385 26.7139 5.37457 26.2586C5.11063 25.8033 4.97129 25.287 4.97046 24.7612V15.8684C4.97135 15.3427 5.11072 14.8264 5.37465 14.3711C5.63858 13.9158 6.01783 13.5374 6.47455 13.2737L14.2097 8.82696C14.6674 8.56476 15.1861 8.42676 15.7141 8.42676C16.2421 8.42676 16.7609 8.56476 17.2185 8.82696L24.9537 13.2737C25.4106 13.5372 25.7901 13.9156 26.0541 14.3709C26.3181 14.8262 26.4576 15.3426 26.4584 15.8684V24.7618C26.4574 25.2875 26.318 25.8037 26.054 26.259C25.7899 26.7142 25.4105 27.0924 24.9537 27.3559L17.2185 31.8033C16.7612 32.0661 16.2424 32.2043 15.7144 32.2039ZM15.7144 10.5741C15.565 10.5741 15.4181 10.6131 15.2885 10.6872L7.55336 15.1339C7.42412 15.2086 7.31679 15.3157 7.24207 15.4446C7.16735 15.5735 7.12784 15.7196 7.12749 15.8684V24.7618C7.12778 24.9106 7.16727 25.0568 7.24199 25.1857C7.31672 25.3145 7.42408 25.4216 7.55336 25.4963L15.2885 29.943C15.418 30.0173 15.5647 30.0564 15.7141 30.0564C15.8635 30.0564 16.0103 30.0173 16.1397 29.943L23.8755 25.4963C24.0047 25.4216 24.112 25.3145 24.1866 25.1856C24.2612 25.0567 24.3006 24.9106 24.3008 24.7618V15.8684C24.3005 15.7196 24.2611 15.5735 24.1865 15.4447C24.1119 15.3158 24.0047 15.2086 23.8755 15.1339L16.1403 10.6872C16.0106 10.6133 15.8638 10.5743 15.7144 10.5741Z" fill="white"/>
</g>
<path d="M9.84181 12.624V7.86995C9.84181 7.70462 9.84181 7.5393 9.84181 7.37331C9.83602 7.30945 9.8444 7.24511 9.86638 7.18484C9.8852 7.14018 9.89184 7.09136 9.88564 7.04332C9.86704 6.88858 9.93279 6.75235 9.97596 6.61084C10.0472 6.4053 10.1386 6.20727 10.2489 6.01963C10.3045 5.89875 10.3817 5.78895 10.4767 5.6956C10.5108 5.66235 10.5391 5.62369 10.5604 5.58119C10.6255 5.46417 10.7201 5.36597 10.8347 5.29617C10.918 5.24866 10.9933 5.18841 11.0578 5.11762C11.113 5.05217 11.1822 4.99995 11.2604 4.96486C11.3345 4.93419 11.4037 4.89274 11.4656 4.84186C11.5137 4.80842 11.5654 4.78047 11.6197 4.75854C11.713 4.71919 11.8005 4.66759 11.88 4.60511C11.9313 4.56692 11.9876 4.53599 12.0474 4.51319C12.094 4.49934 12.1387 4.47956 12.1802 4.45434C12.2971 4.35051 12.4459 4.30356 12.5694 4.20701C12.6571 4.1458 12.7518 4.09539 12.8517 4.0569C12.8877 4.0469 12.9214 4.02981 12.9506 4.00664C13.023 3.94405 13.1054 3.89398 13.1944 3.85851C13.2731 3.82607 13.3462 3.78143 13.4109 3.72625C13.4564 3.68963 13.5081 3.66141 13.5636 3.64292C13.6625 3.60344 13.7547 3.54926 13.8373 3.48223C13.8632 3.46401 13.8907 3.44829 13.9196 3.43528C13.9959 3.39753 14.0688 3.35327 14.1375 3.30302C14.1846 3.26792 14.2371 3.24046 14.2929 3.22168C14.3825 3.18742 14.4656 3.13822 14.5386 3.07619C14.559 3.05941 14.5813 3.04499 14.605 3.03321C14.8295 2.91219 15.058 2.79778 15.2778 2.66883C15.3781 2.60931 15.477 2.54451 15.5753 2.48367C15.6875 2.41265 15.8044 2.34945 15.9253 2.29454C16.0342 2.24626 16.1126 2.15434 16.2229 2.10805C16.3312 2.06217 16.4337 2.00379 16.5284 1.93413C16.5948 1.88519 16.6824 1.86138 16.7555 1.8184C16.9202 1.72053 17.0809 1.62001 17.245 1.51817C17.2994 1.48511 17.3579 1.45865 17.4143 1.4289C17.5023 1.39052 17.5851 1.34119 17.6607 1.28209C17.709 1.24889 17.7615 1.2222 17.8168 1.20273C17.9073 1.17096 17.9907 1.122 18.0625 1.05857C18.0774 1.04328 18.0946 1.03054 18.1137 1.02087C18.2086 0.972588 18.3 0.917787 18.3873 0.856871C18.474 0.804926 18.5651 0.760669 18.6596 0.724611C18.6799 0.71815 18.699 0.708312 18.716 0.695514C18.8054 0.619421 18.9066 0.558232 19.0156 0.514319C19.0873 0.478608 19.153 0.430995 19.2221 0.393301C19.2912 0.355607 19.3729 0.344364 19.4439 0.306009C19.4972 0.2699 19.5585 0.247208 19.6226 0.239879C19.6486 0.235091 19.673 0.223959 19.6936 0.207476C19.7988 0.15578 19.9076 0.111583 20.0191 0.0752161C20.0757 0.0587602 20.1351 0.0538126 20.1937 0.0606674C20.3007 0.0606674 20.4083 0.0692638 20.5085 0.0156985C20.5384 0.00349963 20.5707 -0.00170402 20.6028 0.000488951C20.7151 0.000488951 20.828 0.000488951 20.9402 0.000488951C20.9725 -0.00126269 21.0048 0.00439351 21.0345 0.0170214C21.1178 0.0543742 21.2094 0.0692021 21.3002 0.0600065C21.3754 0.052164 21.4511 0.0673926 21.5174 0.103651C21.5263 0.109475 21.5366 0.112893 21.5473 0.113572C21.6768 0.113572 21.781 0.179701 21.8893 0.237234C21.9664 0.272131 22.0459 0.301737 22.1271 0.325848C22.2599 0.376768 22.3867 0.450172 22.5162 0.513657C22.5704 0.536942 22.6202 0.569133 22.6637 0.608884C22.7221 0.666417 22.8038 0.683611 22.8722 0.724611C23.0502 0.830419 23.2368 0.923001 23.4035 1.0427C23.4932 1.10883 23.6028 1.14057 23.6977 1.20207C23.8711 1.31647 24.0697 1.38723 24.2337 1.51751C24.2977 1.56566 24.369 1.60338 24.4449 1.62927C24.5179 1.64843 24.5841 1.68734 24.6362 1.74169C24.6424 1.75034 24.6506 1.75737 24.6601 1.76219C24.854 1.84022 25.0041 1.99563 25.2027 2.06573C25.2341 2.07348 25.2635 2.08767 25.289 2.10739C25.3847 2.19666 25.5062 2.23965 25.6164 2.30578C25.6314 2.31141 25.6458 2.31826 25.6596 2.32628C25.7838 2.42878 25.9372 2.48234 26.0674 2.57493C26.1616 2.63529 26.2594 2.68984 26.3603 2.73827C26.3749 2.74554 26.3941 2.7462 26.4048 2.75678C26.5004 2.85664 26.6359 2.88904 26.7514 2.95187C26.809 2.97965 26.863 3.01429 26.9122 3.05503C26.9371 3.07491 26.9643 3.09178 26.9932 3.10529L27.4833 3.37576C27.5082 3.38574 27.5319 3.39862 27.5537 3.41411C27.6387 3.49876 27.753 3.53976 27.8526 3.59729C28.0146 3.68855 28.1847 3.76857 28.3394 3.87107C28.5174 3.99011 28.7153 4.06946 28.8886 4.19577C28.9451 4.23611 29.0162 4.25396 29.0726 4.29364C29.331 4.47484 29.6179 4.60511 29.8895 4.7625C29.9812 4.81607 30.0655 4.88088 30.1552 4.93643C30.2555 4.98526 30.3456 5.05258 30.4208 5.13481C30.561 5.18507 30.6373 5.32395 30.7715 5.38346C30.801 5.39672 30.8246 5.42023 30.8379 5.44959C30.8707 5.51641 30.9157 5.57653 30.9707 5.62682C30.9941 5.64873 31.0138 5.67417 31.0292 5.70221C31.0635 5.76873 31.1097 5.82854 31.1653 5.87878C31.2455 5.95762 31.3019 6.05729 31.328 6.16644C31.3509 6.23297 31.3826 6.29614 31.4223 6.35425C31.4798 6.45618 31.5232 6.56541 31.5512 6.67895C31.5622 6.74727 31.5818 6.81393 31.6096 6.87734C31.6306 6.93807 31.6368 7.0029 31.6276 7.06647C31.6276 7.16765 31.6176 7.26883 31.676 7.36207C31.6878 7.39191 31.6923 7.42407 31.6893 7.45598C31.6893 7.50954 31.6893 7.56244 31.6893 7.61601C31.6893 10.6139 31.6893 13.6118 31.6893 16.6097C31.6893 16.7208 31.6973 16.8319 31.6422 16.9403C31.6261 16.9914 31.6209 17.0452 31.6269 17.0984C31.6269 17.2095 31.6388 17.3232 31.5731 17.4244C31.5686 17.4342 31.5661 17.4447 31.5658 17.4555C31.5331 17.6231 31.4713 17.7838 31.3832 17.9303C31.3758 17.9442 31.3619 17.9567 31.3586 17.9713C31.3221 18.1518 31.1866 18.2709 31.0929 18.4163C31.0199 18.5288 30.9222 18.62 30.8532 18.7338C30.8436 18.7528 30.8289 18.7688 30.8107 18.7801C30.7331 18.8274 30.6634 18.8865 30.6041 18.9553C30.5898 18.9713 30.5738 18.9858 30.5563 18.9983C30.4082 19.0926 30.2656 19.1953 30.1293 19.3058C30.1208 19.3125 30.1114 19.3178 30.1014 19.3217C29.9333 19.3878 29.7912 19.5082 29.6232 19.5789C29.5529 19.6061 29.4887 19.647 29.4346 19.6993C29.4192 19.7142 29.4018 19.7269 29.3828 19.737C29.2287 19.8216 29.0733 19.9036 28.9179 19.9896C28.8387 20.0222 28.7657 20.068 28.702 20.1251C28.6866 20.1399 28.6686 20.1518 28.6489 20.1602C28.5038 20.2292 28.3632 20.3072 28.2278 20.3936C28.2007 20.4111 28.1718 20.4255 28.1415 20.4366C28.134 20.4395 28.1259 20.4407 28.1179 20.4402C28.1099 20.4397 28.102 20.4375 28.0949 20.4337C28.0878 20.43 28.0816 20.4247 28.0767 20.4184C28.0718 20.4121 28.0683 20.4047 28.0664 20.3969C28.0583 20.3444 28.054 20.2914 28.0538 20.2382C28.0538 19.811 28.0538 19.3845 28.0538 18.9573V18.0454C28.0538 18.0024 28.0538 17.9601 28.0578 17.9171C28.0582 17.8983 28.0636 17.88 28.0736 17.8641C28.0835 17.8481 28.0975 17.8351 28.1143 17.8265L28.1554 17.8013L28.6867 17.5104C28.711 17.4994 28.7346 17.4868 28.7571 17.4727C28.8695 17.3923 28.9873 17.3198 29.1098 17.2558C29.1832 17.2104 29.242 17.145 29.2792 17.0673C29.4007 16.8319 29.402 16.8325 29.402 16.5654V7.61733C29.402 7.57501 29.402 7.53202 29.402 7.48904C29.4055 7.4192 29.3874 7.34998 29.3502 7.29065C29.2924 7.19542 29.2572 7.08697 29.1689 7.01026C29.1238 6.96492 29.0701 6.92895 29.0108 6.90445C28.9404 6.87901 28.8755 6.8404 28.8196 6.79071C28.7635 6.75034 28.7031 6.71619 28.6396 6.68887C28.5559 6.6439 28.4616 6.61546 28.3959 6.54008C28.3852 6.52783 28.3718 6.5183 28.3567 6.5123C28.1488 6.4389 27.9901 6.2749 27.7815 6.20215C27.7761 6.20095 27.7711 6.19845 27.7669 6.19488C27.6633 6.08775 27.5185 6.0527 27.3923 5.98458C27.3674 5.97495 27.3438 5.96229 27.3219 5.94689C27.2137 5.8477 27.0749 5.80074 26.9533 5.72602C26.8318 5.65129 26.6824 5.57722 26.5549 5.48795C26.466 5.42934 26.3732 5.37676 26.2773 5.33056C26.1172 5.24657 25.9678 5.14209 25.7997 5.07133C25.6828 4.96486 25.5294 4.92188 25.4013 4.83921C25.2731 4.75655 25.1276 4.69439 25.0101 4.59255C24.9454 4.54534 24.874 4.50811 24.7982 4.48211C24.7238 4.45293 24.6538 4.41353 24.5903 4.36506C24.5291 4.32288 24.4639 4.28657 24.3957 4.25661C24.3121 4.22074 24.2343 4.17284 24.1646 4.11443C24.154 4.10235 24.1408 4.09265 24.1261 4.08599C23.9368 4.01986 23.7894 3.8843 23.6107 3.79965C23.4427 3.7203 23.2919 3.60589 23.1186 3.53513C22.8974 3.3665 22.6271 3.27789 22.404 3.11719C22.234 2.99419 22.0341 2.92806 21.8694 2.79977C21.8154 2.7652 21.7585 2.73533 21.6993 2.71049C21.6151 2.67655 21.5372 2.6287 21.4689 2.56897C21.4532 2.5545 21.435 2.54306 21.4151 2.53525C21.2823 2.46912 21.1441 2.40828 21.0106 2.34083C20.9635 2.31557 20.9108 2.30239 20.8572 2.30247C20.7908 2.30247 20.7277 2.3071 20.6646 2.30247C20.6136 2.29723 20.5621 2.30219 20.513 2.31707C20.464 2.33194 20.4184 2.35643 20.379 2.3891C20.2688 2.47838 20.1366 2.52136 20.0177 2.59212C19.9977 2.59945 19.9785 2.60899 19.9606 2.62056C19.8716 2.70917 19.7541 2.75282 19.6472 2.81035C19.4844 2.91115 19.3164 3.0032 19.1437 3.08611C19.0342 3.20118 18.8721 3.23358 18.7526 3.33344C18.7205 3.3522 18.6872 3.36877 18.6529 3.38303C18.5394 3.44201 18.4298 3.50828 18.3249 3.58142C18.2677 3.62076 18.2059 3.65296 18.1409 3.67731C18.0596 3.70609 17.985 3.7511 17.9217 3.80957C17.9014 3.82549 17.8791 3.83862 17.8553 3.84859C17.7754 3.89071 17.6982 3.93775 17.6242 3.98945C17.5432 4.04051 17.4582 4.08475 17.3698 4.1217C17.3413 4.13625 17.3034 4.13956 17.2835 4.16072C17.1852 4.26653 17.0451 4.30026 16.9295 4.37498C16.8959 4.39086 16.8641 4.41014 16.8345 4.43252C16.7821 4.47825 16.7218 4.51411 16.6565 4.53832C16.5507 4.57541 16.4531 4.63243 16.369 4.70629C16.3427 4.72392 16.3146 4.73877 16.2853 4.7506C16.2079 4.78608 16.1351 4.83047 16.0681 4.88286C16.0308 4.91262 15.9883 4.93506 15.9426 4.94899C15.8369 4.98605 15.7388 5.04184 15.653 5.11365C15.6142 5.14127 15.5726 5.16476 15.5288 5.18375C15.4186 5.23728 15.3119 5.2978 15.2094 5.36495C15.1288 5.41627 15.0439 5.46053 14.9557 5.49721C14.9411 5.50448 14.9205 5.50382 14.9112 5.5144C14.8003 5.63674 14.6349 5.67245 14.508 5.77165C14.4187 5.82947 14.3242 5.87905 14.2258 5.91978C14.2059 5.92661 14.1873 5.93666 14.1707 5.94954C14.0811 6.02602 13.9794 6.08724 13.8698 6.13073C13.6945 6.22001 13.5377 6.33772 13.3524 6.41377C13.1452 6.57579 12.9028 6.67829 12.681 6.81055C12.5479 6.87827 12.4261 6.96592 12.3197 7.07044C12.2261 7.17691 12.145 7.28536 12.1404 7.43349C12.1415 7.44962 12.1378 7.46572 12.1298 7.47978C12.068 7.56443 12.076 7.66164 12.076 7.75687C12.076 8.45079 12.076 9.14449 12.076 9.83797C12.0758 9.88596 12.0789 9.93391 12.0853 9.98148C12.0861 9.98684 12.0881 9.99195 12.0912 9.99644C12.0943 10.0009 12.0983 10.0047 12.103 10.0074C12.1077 10.0101 12.113 10.0118 12.1184 10.0122C12.1239 10.0126 12.1293 10.0119 12.1344 10.0099C12.1692 9.99678 12.2028 9.98063 12.2347 9.96164C12.917 9.56971 13.5993 9.17756 14.2816 8.78519C14.7569 8.51647 15.2953 8.37803 15.8419 8.38395C16.3885 8.38988 16.9237 8.53996 17.3931 8.81891C18.0745 9.21172 18.7565 9.6041 19.4393 9.99603C19.5721 10.0734 19.5914 10.0622 19.5927 9.91336C19.5927 9.71497 19.5927 9.51658 19.5927 9.31819C19.5927 8.21338 19.5927 7.10879 19.5927 6.00442C19.5906 5.86551 19.6106 5.72715 19.6518 5.59442C19.7202 5.38777 19.8482 5.20574 20.0198 5.07099C20.1914 4.93624 20.399 4.85473 20.6168 4.83662C20.8346 4.8185 21.0529 4.86458 21.2445 4.9691C21.4362 5.07363 21.5928 5.23199 21.6947 5.42446C21.7801 5.57963 21.8258 5.75341 21.8275 5.93036C21.8275 5.99649 21.8275 6.06923 21.8275 6.13867V16.2235C21.8223 16.3344 21.8313 16.4455 21.8541 16.5541C21.8766 16.6374 21.874 16.7255 21.8468 16.8074C21.8234 16.8838 21.8133 16.9637 21.8169 17.0435C21.8169 17.1023 21.8169 17.1612 21.8169 17.2201C21.821 17.3109 21.7996 17.4012 21.7551 17.4806C21.7013 17.5899 21.659 17.7045 21.6289 17.8225C21.5932 17.9338 21.5398 18.0387 21.4709 18.1333C21.4104 18.2206 21.3613 18.3145 21.2969 18.3978C21.2474 18.4671 21.1937 18.5334 21.1362 18.5962C21.0917 18.6425 21.0465 18.6881 21.0033 18.7338C20.9612 18.7894 20.9038 18.8317 20.838 18.8554C20.8224 18.8594 20.8084 18.8676 20.7974 18.8793C20.7038 18.9917 20.5617 19.0439 20.4654 19.1504C20.4487 19.1712 20.4276 19.1882 20.4036 19.2C20.2157 19.2661 20.0715 19.4109 19.8889 19.4863C19.8279 19.5073 19.7726 19.5422 19.7275 19.5882C19.6832 19.6273 19.6301 19.6554 19.5728 19.6702C19.4783 19.706 19.3901 19.7562 19.3111 19.819C19.2241 19.8917 19.1119 19.9208 19.0182 19.9823C18.8761 20.0749 18.7147 20.1357 18.5832 20.2468C18.5717 20.258 18.5584 20.2674 18.544 20.2746C18.3129 20.3738 18.1123 20.5279 17.8845 20.6317C17.8411 20.6519 17.8007 20.6779 17.7643 20.7091C17.7447 20.728 17.7223 20.7438 17.6979 20.756C17.4987 20.8341 17.3293 20.967 17.1387 21.0615C17.0623 21.0999 17.0112 21.174 16.9248 21.2004C16.8649 21.2234 16.8067 21.2508 16.7508 21.2824C16.7258 21.2906 16.702 21.3024 16.6804 21.3175C16.5981 21.3847 16.5066 21.4402 16.4088 21.4821C16.3383 21.5198 16.2698 21.5611 16.2036 21.6058C16.1113 21.6673 16.0044 21.705 15.9074 21.7625C15.7805 21.8399 15.653 21.9153 15.5282 21.9953C15.462 22.04 15.3923 22.0792 15.3196 22.1123C15.231 22.1464 15.1491 22.1959 15.0779 22.2585C15.049 22.2818 15.0173 22.3016 14.9836 22.3174C14.8003 22.4139 14.617 22.5111 14.4376 22.6149C14.3593 22.6599 14.2949 22.726 14.2118 22.765C14.1578 22.788 14.1057 22.8149 14.0558 22.8457C13.9176 22.9383 13.7662 23.0038 13.6214 23.0825C13.6018 23.0907 13.5832 23.1013 13.5663 23.1142C13.4806 23.1869 13.3825 23.2438 13.2767 23.2822C13.2061 23.3068 13.1417 23.3465 13.0881 23.3986C13.0682 23.4211 13.0323 23.4277 13.0051 23.4449C12.9228 23.4826 12.8458 23.5309 12.776 23.5884C12.7428 23.6162 12.7054 23.6385 12.6651 23.6545C12.5402 23.7147 12.4187 23.7868 12.2892 23.8317C12.0653 23.915 11.8468 24.0136 11.6177 24.083C11.5554 24.0982 11.4912 24.1047 11.4271 24.1022C11.3312 24.1035 11.2356 24.1135 11.1415 24.132C10.9778 24.1627 10.8098 24.1627 10.6461 24.132C10.5679 24.1147 10.4883 24.105 10.4083 24.1029C10.328 24.1114 10.2469 24.0962 10.1752 24.0592C10.1613 24.0509 10.1455 24.0464 10.1294 24.046C10.0231 24.046 9.93877 23.9799 9.8438 23.9514C9.70167 23.9051 9.57283 23.8311 9.43004 23.7881C9.36301 23.7702 9.29978 23.7404 9.24342 23.7001C9.17269 23.6513 9.09881 23.6071 9.02226 23.5679C8.92994 23.515 8.82766 23.4793 8.75129 23.4006C8.7392 23.3903 8.72552 23.382 8.71078 23.3761L8.17947 23.0851C8.15945 23.0778 8.14065 23.0675 8.12368 23.0547C8.03601 22.9628 7.9158 22.9264 7.80887 22.8682C7.70195 22.81 7.58838 22.7399 7.47681 22.6758C7.37987 22.6313 7.28866 22.5753 7.20517 22.5091C7.17902 22.4911 7.15008 22.4775 7.1195 22.4688C7.05338 22.4462 6.99259 22.4104 6.94085 22.3636C6.92684 22.3474 6.90967 22.3341 6.89037 22.3246C6.72989 22.2506 6.57458 22.166 6.42547 22.0713C6.30593 22.0052 6.17177 21.9583 6.0695 21.8584C6.03124 21.8294 5.98835 21.8071 5.94264 21.7923C5.88729 21.772 5.83716 21.7397 5.79587 21.6977C5.76876 21.6721 5.73634 21.6527 5.7009 21.6408C5.57582 21.5932 5.45905 21.5263 5.35488 21.4424C5.29843 21.3909 5.21143 21.3763 5.14236 21.334C4.97632 21.2381 4.80298 21.1535 4.6416 21.0523C4.50877 20.9709 4.37594 20.8949 4.2471 20.8116C4.15345 20.7514 4.04786 20.7051 3.95089 20.6529C3.93058 20.6462 3.91116 20.6371 3.89311 20.6257C3.78236 20.5331 3.65599 20.4608 3.51987 20.4121C3.49969 20.4052 3.48082 20.3949 3.46408 20.3817C3.37863 20.3089 3.28169 20.2505 3.17717 20.2091C3.14702 20.1983 3.11861 20.1831 3.09282 20.1642C2.97129 20.0577 2.81455 20.0107 2.68637 19.9129C2.59737 19.8543 2.50389 19.8028 2.40677 19.7588C2.38817 19.7482 2.36227 19.7462 2.34832 19.7323C2.24273 19.6272 2.09861 19.5921 1.97375 19.522C1.94465 19.509 1.91723 19.4926 1.89206 19.4731C1.84389 19.4308 1.79002 19.3954 1.732 19.368C1.6709 19.3342 1.61711 19.2866 1.55733 19.2575C1.44045 19.1993 1.35809 19.1001 1.24386 19.04C1.19842 19.0118 1.15708 18.9775 1.121 18.9381C1.07251 18.8812 1.01563 18.8319 0.952304 18.792C0.928364 18.7795 0.909224 18.7595 0.897845 18.7351C0.863344 18.681 0.821053 18.6322 0.772323 18.5903C0.714971 18.5424 0.669512 18.482 0.639495 18.4137C0.633144 18.399 0.623883 18.3857 0.612265 18.3747C0.450879 18.2047 0.36587 17.9944 0.287501 17.7795C0.276211 17.7498 0.25695 17.7233 0.244332 17.6942C0.177918 17.5381 0.0988852 17.3854 0.104198 17.2082C0.0543879 17.0759 0.068335 16.935 0.0650143 16.7968C0.0671172 16.7539 0.0577189 16.7112 0.0377844 16.6732C0.00999398 16.621 -0.00200239 16.562 0.00324991 16.5032C0.00324991 16.4662 0.00324991 16.4285 0.00324991 16.3914V7.81109C-0.00744067 7.71005 0.0083479 7.60798 0.0490757 7.51483C0.0648729 7.46942 0.070539 7.42113 0.0656791 7.37331C0.0581874 7.25617 0.0691674 7.13857 0.0982213 7.02481C0.105117 7.00348 0.107381 6.98094 0.104863 6.95868C0.0987302 6.83006 0.135125 6.70299 0.208469 6.59695C0.257547 6.52643 0.289802 6.44568 0.302776 6.36086C0.309529 6.33529 0.320771 6.31111 0.335983 6.28944L0.496041 5.97665C0.500536 5.96702 0.506106 5.95792 0.512644 5.94954C0.591677 5.84968 0.670709 5.75115 0.751734 5.65129C0.78873 5.61185 0.819821 5.5673 0.844049 5.51903C0.859741 5.48195 0.882935 5.44849 0.912187 5.42072C0.941438 5.39296 0.976121 5.3715 1.01407 5.35767C1.02437 5.35517 1.03407 5.35067 1.04263 5.34445C1.13561 5.26443 1.24187 5.1983 1.32954 5.11762C1.44154 5.02804 1.56058 4.94754 1.68551 4.87691C1.76122 4.83749 1.83285 4.79075 1.89937 4.73737C1.91961 4.72069 1.94193 4.70669 1.96578 4.69571C2.14377 4.5985 2.32176 4.50261 2.49709 4.4054C2.52084 4.39423 2.54314 4.38024 2.56351 4.36374C2.64099 4.29816 2.7296 4.24688 2.82518 4.2123C2.90007 4.18392 2.96967 4.14324 3.03106 4.09195C3.08676 4.05079 3.14745 4.01679 3.21171 3.99077C3.29494 3.95445 3.37272 3.90683 3.44283 3.84925C3.45346 3.83712 3.4666 3.82742 3.48135 3.82081C3.66797 3.76196 3.80478 3.61515 3.9841 3.54307C4.05889 3.52119 4.12786 3.48302 4.186 3.43131C4.2322 3.39454 4.28557 3.36774 4.34273 3.35261C4.4315 3.31642 4.51504 3.2686 4.59112 3.21044C4.67532 3.15457 4.76293 3.10399 4.85346 3.059C5.01285 2.96311 5.18553 2.89169 5.33297 2.77199C5.3687 2.74878 5.40649 2.72885 5.44587 2.71248C5.64511 2.60336 5.85232 2.49888 6.04891 2.38183C6.14853 2.32231 6.24815 2.25883 6.34711 2.19732C6.44606 2.13582 6.56029 2.07697 6.66921 2.0201C6.80204 1.95397 6.91428 1.85213 7.0491 1.78534C7.22642 1.69804 7.40043 1.6048 7.56846 1.50164C7.69597 1.4236 7.82282 1.34623 7.951 1.27018C8.02472 1.22654 8.10043 1.18752 8.17548 1.14784C8.25895 1.1117 8.33678 1.06382 8.4066 1.00566C8.44453 0.976175 8.4875 0.95377 8.53345 0.939533C8.63778 0.897841 8.73571 0.841743 8.82434 0.772887C8.88604 0.730989 8.95165 0.695112 9.02027 0.665756C9.09848 0.631936 9.17157 0.58742 9.23744 0.533496C9.2898 0.486795 9.35505 0.456843 9.42473 0.447527C9.49327 0.43521 9.55871 0.409595 9.61733 0.372139C9.75547 0.286831 9.91154 0.249137 10.0596 0.189621C10.1888 0.137118 10.3282 0.114506 10.4674 0.123491C10.5048 0.126931 10.5426 0.124023 10.579 0.114893C10.7636 0.0613282 10.9529 0.077861 11.1382 0.0904257C11.271 0.0990226 11.4039 0.128781 11.5367 0.12812C11.5686 0.130894 11.5999 0.138244 11.6297 0.149942C11.6556 0.157216 11.6795 0.177056 11.7047 0.177718C11.8336 0.177718 11.9365 0.248477 12.0481 0.300719C12.1597 0.352962 12.2951 0.399253 12.4167 0.453479C12.5711 0.513719 12.7166 0.594707 12.849 0.694192C12.8803 0.71451 12.9134 0.731783 12.948 0.745773C13.1585 0.860839 13.3724 0.971276 13.5776 1.09494C13.6779 1.15512 13.7768 1.21596 13.8758 1.27878C13.9973 1.35747 14.1308 1.41104 14.253 1.48907C14.2756 1.50296 14.3015 1.51288 14.3228 1.52875C14.3746 1.56777 14.3746 1.60811 14.3228 1.64316C14.2709 1.6782 14.2225 1.70532 14.172 1.73442L13.0031 2.40828L12.3217 2.80109C12.2679 2.84421 12.2082 2.87939 12.1444 2.90558C12.078 2.92012 12.0441 2.83945 11.983 2.81299C11.817 2.75149 11.6855 2.62717 11.5241 2.55509C11.4604 2.5271 11.4008 2.49086 11.3467 2.4473C11.2617 2.39088 11.1613 2.3618 11.0592 2.36397C10.9529 2.35538 10.8447 2.36397 10.7377 2.36397C10.7109 2.36324 10.6841 2.36727 10.6587 2.37587C10.5178 2.42674 10.3839 2.49518 10.2602 2.57956C10.1996 2.62308 10.1364 2.66283 10.0709 2.69859C9.91287 2.78588 9.74816 2.8659 9.59674 2.96311C9.33108 3.13306 9.05082 3.27524 8.77719 3.42933C8.75403 3.44276 8.73184 3.45778 8.71078 3.47429C8.68886 3.49016 8.67159 3.51662 8.64768 3.52389C8.47567 3.57481 8.34882 3.70641 8.1881 3.77915C8.10859 3.81124 8.03481 3.8559 7.9696 3.91141C7.92232 3.94663 7.86929 3.97348 7.81286 3.99077C7.71877 4.03068 7.62963 4.08127 7.5472 4.14154C7.46219 4.20371 7.36125 4.24471 7.27026 4.30026C7.12149 4.39284 6.95479 4.45764 6.82064 4.57469C6.80831 4.58482 6.79468 4.59327 6.78012 4.59982C6.57291 4.68645 6.3916 4.82268 6.18838 4.91791C6.12079 4.94982 6.05762 4.99027 6.00043 5.03827C5.94345 5.07781 5.88299 5.11212 5.81978 5.14077C5.65914 5.21444 5.50381 5.29907 5.35488 5.39404C5.22205 5.48993 5.07661 5.55011 4.94179 5.63409C4.80645 5.71958 4.66606 5.79687 4.52139 5.86555C4.4138 5.98326 4.25573 6.0203 4.13087 6.11288C4.07191 6.14932 4.01093 6.18244 3.94824 6.21207C3.86191 6.25407 3.78003 6.30458 3.70383 6.36285C3.63203 6.41893 3.54991 6.46049 3.46209 6.48519C3.40632 6.50374 3.35484 6.53319 3.31066 6.57182C3.22565 6.64721 3.11142 6.68027 3.0211 6.74111C2.98745 6.75708 2.95523 6.77589 2.9248 6.79732C2.87009 6.84869 2.80416 6.88672 2.7322 6.90842C2.68132 6.92474 2.63556 6.9539 2.59937 6.99307C2.48156 7.10835 2.39281 7.24975 2.34036 7.40572C2.30771 7.50652 2.29178 7.61194 2.2932 7.71785C2.2932 10.6527 2.2932 13.5873 2.2932 16.5217C2.29197 16.6918 2.34043 16.8586 2.43267 17.0018C2.49908 17.105 2.55952 17.2002 2.67707 17.2425C2.78998 17.3596 2.95668 17.3953 3.07556 17.5071C3.13363 17.5451 3.19664 17.5752 3.26284 17.5963C3.29292 17.6076 3.3224 17.6204 3.35117 17.6347C3.484 17.718 3.62281 17.8007 3.75497 17.8886C3.78863 17.9147 3.82517 17.9369 3.86389 17.9548C3.98644 17.9938 4.09951 18.0578 4.19596 18.1426C4.20309 18.1506 4.21194 18.1569 4.22186 18.1611C4.41645 18.2385 4.58315 18.3667 4.76911 18.4593C4.86333 18.4976 4.95061 18.551 5.02746 18.6174C5.03077 18.6216 5.03482 18.6252 5.03942 18.628C5.20412 18.6941 5.33761 18.8138 5.50033 18.8819C5.58484 18.9159 5.66367 18.9625 5.73411 19.0201C5.82443 19.0955 5.94397 19.1246 6.03961 19.1907C6.21494 19.3131 6.4268 19.3713 6.58819 19.5154C6.59606 19.5227 6.60502 19.5287 6.61475 19.5333C6.814 19.6153 6.97804 19.7561 7.17595 19.8381C7.20015 19.8473 7.22261 19.8605 7.24236 19.8772C7.32757 19.95 7.42519 20.0071 7.5306 20.0458C7.59146 20.0669 7.64746 20.1 7.69531 20.143C7.72487 20.1656 7.7567 20.1851 7.79028 20.2012C7.87222 20.2398 7.94897 20.2884 8.01874 20.346C8.03989 20.3618 8.06374 20.3737 8.08914 20.3811C8.21521 20.4264 8.33282 20.4923 8.43715 20.5761C8.45404 20.5889 8.47258 20.5994 8.49227 20.6072C8.72273 20.719 8.9326 20.8717 9.16704 20.9729C9.27662 21.0774 9.42539 21.1204 9.54427 21.211C9.59277 21.2452 9.64435 21.2749 9.69835 21.2996C9.80272 21.3411 9.89927 21.3999 9.98393 21.4735C9.99093 21.4817 9.99982 21.4881 10.0098 21.492C10.2283 21.58 10.4169 21.7235 10.6295 21.8227C10.6672 21.8427 10.709 21.854 10.7517 21.8558H11.0406C11.0833 21.8537 11.1249 21.8417 11.1621 21.8207C11.2763 21.7619 11.3919 21.7063 11.5081 21.6521C11.5668 21.6266 11.6216 21.593 11.6708 21.5522C11.7559 21.4782 11.8701 21.4464 11.9637 21.3902C12.0086 21.3696 12.0507 21.3436 12.0893 21.3128C12.1035 21.2971 12.1203 21.2839 12.1391 21.2738C12.3383 21.1945 12.4984 21.0477 12.6949 20.9643C12.7251 20.9532 12.7529 20.9363 12.7766 20.9147C12.8287 20.8685 12.8891 20.8326 12.9546 20.8089C13.0595 20.7697 13.1569 20.7131 13.2429 20.6416C13.2891 20.6057 13.3406 20.5772 13.3956 20.557C13.4842 20.5193 13.568 20.4714 13.6453 20.4141C13.6662 20.3994 13.6884 20.3868 13.7117 20.3764C13.7983 20.3361 13.8805 20.2869 13.9568 20.2296C14.0465 20.1723 14.1394 20.1202 14.2351 20.0736C14.3842 19.9806 14.5395 19.898 14.7 19.8262C14.8202 19.7065 14.9895 19.6669 15.1237 19.5736C15.2579 19.4804 15.4119 19.4334 15.5262 19.3177C15.5346 19.311 15.544 19.3057 15.5541 19.3018C15.7739 19.204 15.9718 19.0671 16.1857 18.9586C16.2388 18.9342 16.2883 18.9023 16.3324 18.864C16.3527 18.8468 16.375 18.8321 16.3989 18.8204L16.9162 18.5347C16.9409 18.525 16.9643 18.5123 16.9859 18.497C17.0849 18.4011 17.2151 18.3648 17.3326 18.2986C17.3579 18.2907 17.3818 18.2791 17.4037 18.2642C17.4814 18.1869 17.5843 18.1531 17.6753 18.0996C17.8549 18.0069 18.0277 17.902 18.1927 17.7855C18.2152 17.7715 18.2387 17.7594 18.2631 17.7491C18.3826 17.6893 18.4988 17.6231 18.6111 17.5507C18.6964 17.4975 18.7851 17.45 18.8768 17.4085C19.0681 17.3127 19.2367 17.1774 19.3715 17.0117C19.468 16.8912 19.533 16.7488 19.5608 16.5971C19.5843 16.4178 19.5937 16.2369 19.5887 16.0562C19.5887 14.9941 19.5887 13.9323 19.5887 12.8707C19.5887 12.6207 19.6013 12.6564 19.3928 12.54C18.3479 11.9405 17.3036 11.34 16.26 10.7387C16.1676 10.6848 16.0672 10.646 15.9625 10.6236C15.7882 10.5855 15.6061 10.6089 15.4471 10.6897C15.3077 10.7559 15.1735 10.8365 15.0387 10.9139L12.1995 12.5473C12.1763 12.5612 12.153 12.5744 12.1331 12.589C12.1168 12.5985 12.1032 12.612 12.0936 12.6282C12.084 12.6444 12.0786 12.6628 12.078 12.6816C12.078 12.7398 12.074 12.7986 12.074 12.8575C12.074 14.4799 12.074 16.1018 12.074 17.7233C12.0769 17.8248 12.0691 17.9263 12.0507 18.0262C11.9511 18.4891 11.6742 18.7913 11.2126 18.8971C11.0666 18.9347 10.9143 18.9419 10.7654 18.9182C10.6165 18.8945 10.4741 18.8405 10.3471 18.7595C10.2201 18.6785 10.1113 18.5722 10.0274 18.4474C9.94355 18.3226 9.88647 18.1819 9.85974 18.0341C9.84592 17.9444 9.84036 17.8537 9.84313 17.763C9.84313 16.8566 9.84313 15.9495 9.84313 15.0417L9.84181 12.624Z" fill="white"/>
<path d="M26.7077 20.4681C26.7077 21.9618 26.7077 23.4554 26.7077 24.9491C26.7115 25.4394 26.596 25.9234 26.3711 26.3597C26.1461 26.7959 25.8184 27.1714 25.4159 27.4541C25.1974 27.6088 24.9597 27.7338 24.7286 27.868C24.2843 28.1259 23.838 28.3805 23.3923 28.6358L21.9452 29.4664C21.5135 29.7146 21.0822 29.963 20.6514 30.2117L18.827 31.2585C18.3867 31.5118 17.9437 31.7624 17.5067 32.0217C17.1874 32.2193 16.8382 32.3647 16.4726 32.4522C15.8507 32.5929 15.2 32.5348 14.6131 32.2862C14.379 32.1801 14.152 32.0591 13.9336 31.9238C13.1911 31.4979 12.4493 31.0714 11.7081 30.6442L10.1633 29.7547C9.56516 29.4108 8.96633 29.0674 8.36683 28.7244L7.05914 27.9705C6.83666 27.8422 6.61351 27.7159 6.395 27.585C5.90291 27.2954 5.5039 26.8722 5.24472 26.3649C5.01297 25.9243 4.89325 25.4339 4.89604 24.9365C4.89604 24.2216 4.89604 23.5068 4.89604 22.7919C4.89602 22.7387 4.89867 22.6855 4.90401 22.6325C4.90484 22.6245 4.90763 22.6168 4.91213 22.6101C4.91663 22.6033 4.92272 22.5978 4.92985 22.594C4.93699 22.5901 4.94496 22.5881 4.95307 22.588C4.96118 22.5879 4.96919 22.5898 4.9764 22.5935C5.01101 22.608 5.04472 22.6246 5.07735 22.6431C5.68504 22.9929 6.29339 23.3408 6.89909 23.6939C7.12489 23.8262 7.11892 23.7772 7.11825 24.0662C7.11825 24.3698 7.11825 24.674 7.11825 24.9782C7.11842 25.1393 7.16448 25.297 7.25108 25.4331C7.3265 25.5506 7.43103 25.6467 7.55459 25.7122L8.34691 26.1698L9.69843 26.9422L11.5222 27.9897C12.0189 28.275 12.5155 28.5602 13.0118 28.8454L14.805 29.8784L15.3483 30.1905C15.481 30.2732 15.6339 30.3181 15.7904 30.3204C15.9469 30.3227 16.1011 30.2824 16.2362 30.2037C16.4713 30.0761 16.7011 29.9392 16.9322 29.807L18.7566 28.7601C19.2623 28.4696 19.7679 28.1788 20.2735 27.8879L21.8741 26.968C22.3102 26.7158 22.7457 26.4639 23.1805 26.2121L24.085 25.691C24.2393 25.6017 24.3591 25.4634 24.425 25.2982C24.4602 25.2201 24.4796 25.1358 24.4822 25.0502C24.4822 24.9808 24.4822 24.9114 24.4822 24.8419V16.0718C24.4822 16.0235 24.4822 15.9752 24.4822 15.9276C24.4817 15.7825 24.4421 15.6402 24.3675 15.5156C24.2928 15.391 24.1858 15.2887 24.0578 15.2194C23.8008 15.0653 23.5391 14.9198 23.2794 14.7703C23.2562 14.7571 23.2336 14.7419 23.2097 14.73C23.1746 14.7157 23.1454 14.6898 23.1271 14.6568C23.1087 14.6237 23.1023 14.5854 23.1087 14.5482C23.1306 14.3352 23.1187 14.1216 23.1194 13.9087C23.1194 13.4068 23.1194 12.9055 23.1194 12.4042C23.1194 12.3824 23.1194 12.3612 23.1194 12.3381C23.1194 12.1397 23.1386 12.1298 23.3186 12.2316C23.8247 12.5213 24.3305 12.812 24.8362 13.1039L25.1835 13.3023C25.6543 13.5698 26.0444 13.9581 26.3131 14.4269C26.5817 14.8957 26.7192 15.4276 26.711 15.9673C26.711 17.4662 26.711 18.9652 26.711 20.4641L26.7077 20.4681Z" fill="white"/>
<path d="M23.1691 21.9916V23.0496C23.1691 23.0814 23.1691 23.1158 23.1691 23.1455C23.1763 23.1935 23.1663 23.2425 23.1409 23.2839C23.1156 23.3254 23.0764 23.3567 23.0303 23.3724C22.9929 23.3925 22.9579 23.4169 22.9261 23.4451C22.9104 23.4594 22.8933 23.4721 22.8749 23.4828C22.6172 23.5886 22.4007 23.7724 22.1444 23.873C22.0183 23.9306 21.8879 23.9785 21.7545 24.0165C21.6711 24.034 21.5902 24.0615 21.5134 24.0985C21.4447 24.1284 21.3699 24.142 21.2949 24.1381C21.1834 24.1381 21.0691 24.1249 20.9669 24.1884C20.8181 24.1996 20.668 24.2274 20.5245 24.1653C20.4587 24.1426 20.3889 24.1334 20.3193 24.1381C20.2131 24.1381 20.1041 24.1507 20.0078 24.0872C19.8086 24.0806 19.6452 23.9649 19.4659 23.9007C19.2915 23.8335 19.1237 23.7505 18.9645 23.6527C18.8317 23.5741 18.6842 23.5165 18.5587 23.4279C18.3309 23.2679 18.0679 23.1687 17.8414 23.0113C17.6342 22.8671 17.4051 22.7673 17.1932 22.6337C17.1708 22.6197 17.1497 22.6038 17.1301 22.5861C17.1271 22.5833 17.1247 22.58 17.1231 22.5763C17.1215 22.5726 17.1206 22.5686 17.1206 22.5646C17.1206 22.5605 17.1215 22.5565 17.1231 22.5528C17.1247 22.5491 17.1271 22.5458 17.1301 22.5431C17.1457 22.5286 17.1629 22.516 17.1813 22.5054L18.4332 21.7846L19.1425 21.3752C19.1743 21.3567 19.2089 21.3375 19.2401 21.3203C19.2767 21.2977 19.3189 21.2856 19.362 21.2856C19.4051 21.2856 19.4473 21.2977 19.4838 21.3203C19.6379 21.4136 19.8033 21.489 19.9487 21.5968C20.0102 21.6391 20.0756 21.6757 20.144 21.7059C20.2626 21.7767 20.3871 21.8376 20.5159 21.8877C20.5759 21.9093 20.6388 21.9214 20.7025 21.9235C20.7563 21.9235 20.8101 21.9235 20.8633 21.9235C20.9222 21.9242 20.9802 21.9091 21.0313 21.8798C21.1103 21.8355 21.1953 21.8011 21.2777 21.7628C21.3734 21.7284 21.4612 21.6753 21.536 21.6067C21.5563 21.5903 21.5786 21.5768 21.6024 21.5664C21.6903 21.5273 21.7727 21.4771 21.8475 21.4169C21.8815 21.3908 21.92 21.3711 21.9611 21.3587C22.073 21.3222 22.1764 21.2637 22.2653 21.1868C22.2818 21.1734 22.3002 21.1622 22.3197 21.1537C22.519 21.0466 22.7122 20.9375 22.9101 20.8323C22.9773 20.7997 23.0411 20.7607 23.1007 20.7159C23.1063 20.7121 23.1127 20.7097 23.1194 20.7091C23.1261 20.7085 23.1329 20.7097 23.139 20.7125C23.1451 20.7153 23.1504 20.7197 23.1543 20.7252C23.1581 20.7306 23.1605 20.737 23.1612 20.7437C23.1658 20.7906 23.1691 20.8389 23.1698 20.8865C23.1698 21.2555 23.1691 21.6232 23.1691 21.9916Z" fill="white"/>
<path d="M8.56924 13.3633V14.3711C8.56924 14.4194 8.56924 14.467 8.56924 14.5153C8.57216 14.5526 8.56354 14.5898 8.54454 14.6221C8.52555 14.6544 8.49708 14.6801 8.46298 14.6958C8.25311 14.8142 8.04523 14.9352 7.83669 15.0555C7.72512 15.1217 7.61221 15.1805 7.50462 15.25C7.40887 15.3096 7.32673 15.3885 7.26347 15.4817C7.20022 15.5749 7.15726 15.6802 7.13736 15.7909C7.12458 15.8751 7.11947 15.9604 7.12208 16.0455C7.12208 16.7121 7.12208 17.3785 7.12208 18.0446C7.12185 18.1032 7.1183 18.1617 7.11145 18.2199C7.11068 18.2279 7.108 18.2356 7.10363 18.2424C7.09926 18.2492 7.09332 18.2549 7.08631 18.259C7.07931 18.2631 7.07143 18.2654 7.06333 18.2659C7.05523 18.2663 7.04714 18.2648 7.03973 18.2615C7.00996 18.25 6.9811 18.2363 6.95339 18.2205L5.0938 17.169C5.05196 17.1452 5.01078 17.1201 4.96894 17.0956C4.94515 17.0829 4.92547 17.0637 4.91219 17.0403C4.89891 17.0169 4.89256 16.9902 4.89389 16.9634C4.89389 16.9581 4.89389 16.9528 4.89389 16.9475C4.89389 16.5368 4.8753 16.1249 4.90253 15.7162C4.9459 15.0883 5.18847 14.4904 5.59522 14.0087C5.84542 13.7085 6.14944 13.4571 6.49181 13.2674C7.11876 12.909 7.7446 12.5492 8.36933 12.1881C8.41051 12.1636 8.45308 12.1416 8.49685 12.122C8.5042 12.1185 8.51232 12.1169 8.52047 12.1172C8.52862 12.1176 8.53655 12.12 8.54353 12.1242C8.55052 12.1284 8.55634 12.1343 8.56048 12.1413C8.56462 12.1483 8.56695 12.1562 8.56725 12.1643C8.57123 12.212 8.57322 12.2602 8.57322 12.3078C8.57322 12.6597 8.57322 13.0115 8.57322 13.3659L8.56924 13.3633Z" fill="white"/>
</svg>
