<svg width="46" height="55" viewBox="0 0 46 55" fill="none" xmlns="http://www.w3.org/2000/svg">
<rect width="46" height="46" rx="22.8571" fill="#FCAA30"/>
<g filter="url(#filter0_f_2108_742)">
<ellipse cx="22.8574" cy="44" rx="14" ry="4" fill="#FCAA30" fill-opacity="0.53"/>
</g>
<path d="M31.2756 17.8573H32.0513C32.1552 17.8611 32.2578 17.8333 32.3456 17.7777C32.4334 17.722 32.5022 17.641 32.543 17.5454C32.5839 17.4498 32.5948 17.3441 32.5743 17.2421C32.5539 17.1402 32.503 17.0469 32.4284 16.9744L27.3199 11.8787C27.2488 11.8019 27.1559 11.7487 27.0537 11.726C26.9515 11.7034 26.8449 11.7125 26.748 11.7521C26.6511 11.7917 26.5686 11.8599 26.5115 11.9476C26.4544 12.0353 26.4254 12.1384 26.4284 12.243V13.0187C26.4284 13.6549 26.5539 14.2848 26.7976 14.8724C27.0413 15.46 27.3984 15.9937 27.8486 16.4431C28.2989 16.8926 28.8333 17.2488 29.4213 17.4914C30.0093 17.7341 30.6394 17.8584 31.2756 17.8573Z" fill="white"/>
<path d="M24.1831 23.0556C24.0457 22.8909 23.8708 22.7616 23.6731 22.6785C23.4122 22.5781 23.1338 22.5314 22.8545 22.5413H22.2974V26.2228H22.8716C23.1308 26.2307 23.3893 26.1915 23.6345 26.107C23.8341 26.0332 24.0123 25.911 24.1531 25.7513C24.3006 25.5744 24.406 25.3663 24.4616 25.1428C24.5342 24.8761 24.5689 24.6005 24.5645 24.3242C24.5664 24.0827 24.5362 23.842 24.4745 23.6085C24.4164 23.4061 24.3172 23.2179 24.1831 23.0556Z" fill="white"/>
<path d="M31.2757 19.5714C30.4145 19.5725 29.5615 19.4039 28.7654 19.0751C27.9694 18.7463 27.246 18.2638 26.6366 17.6552C26.0272 17.0466 25.5438 16.3238 25.214 15.5282C24.8841 14.7326 24.7143 13.8798 24.7143 13.0186C24.7143 12.4847 24.5028 11.9726 24.1261 11.5943C23.7494 11.2159 23.2382 11.0023 22.7043 11H17.5615C16.9254 10.9989 16.2952 11.1232 15.7072 11.3659C15.1192 11.6085 14.5848 11.9647 14.1346 12.4142C13.6844 12.8636 13.3272 13.3973 13.0835 13.9849C12.8398 14.5726 12.7144 15.2024 12.7144 15.8386V30.1614C12.7144 30.7975 12.8398 31.4274 13.0835 32.015C13.3272 32.6026 13.6844 33.1364 14.1346 33.5858C14.5848 34.0352 15.1192 34.3915 15.7072 34.6341C16.2952 34.8768 16.9254 35.0011 17.5615 35H28.46C29.7411 34.9966 30.9685 34.4853 31.8731 33.5782C32.7777 32.6712 33.2857 31.4424 33.2857 30.1614V21.59C33.2857 21.0561 33.0743 20.544 32.6975 20.1657C32.3208 19.7874 31.8096 19.5737 31.2757 19.5714ZM20.2058 24.1314C20.1119 24.3598 19.965 24.5625 19.7772 24.7228C19.5825 24.89 19.3547 25.0141 19.1086 25.0871C18.8068 25.1756 18.4931 25.2176 18.1786 25.2114H17.7415V26.9257C17.7425 26.9537 17.7334 26.9811 17.7158 27.0028C17.6917 27.0296 17.6605 27.0489 17.6258 27.0585C17.5713 27.0755 17.5153 27.087 17.4586 27.0928C17.2805 27.1097 17.1011 27.1097 16.9229 27.0928C16.8648 27.0873 16.8073 27.0758 16.7515 27.0585C16.7165 27.0497 16.6851 27.0302 16.6615 27.0028C16.6442 26.9809 16.6351 26.9536 16.6358 26.9257V22.07C16.6316 22.0163 16.6385 21.9622 16.6562 21.9114C16.6739 21.8605 16.702 21.8138 16.7386 21.7743C16.8121 21.7071 16.9091 21.6716 17.0086 21.6757H18.2943C18.4229 21.6757 18.5443 21.6757 18.6586 21.6757C18.8025 21.6894 18.9456 21.7108 19.0872 21.74C19.2592 21.7763 19.4251 21.8369 19.5801 21.92C19.7421 22.0025 19.8874 22.1144 20.0086 22.25C20.1282 22.385 20.2199 22.5423 20.2786 22.7128C20.3416 22.905 20.372 23.1064 20.3686 23.3086C20.3691 23.5909 20.3137 23.8705 20.2058 24.1314ZM25.5072 25.5714C25.3933 25.8979 25.2022 26.192 24.95 26.4285C24.696 26.6586 24.3925 26.8272 24.0629 26.9214C23.6585 27.0342 23.2398 27.0876 22.82 27.08H21.5343C21.4498 27.0823 21.3674 27.0533 21.3029 26.9985C21.2688 26.9638 21.2427 26.922 21.2264 26.8761C21.2101 26.8302 21.204 26.7813 21.2086 26.7328V22.0186C21.204 21.9701 21.2101 21.9212 21.2264 21.8753C21.2427 21.8294 21.2688 21.7876 21.3029 21.7528C21.3674 21.6981 21.4498 21.6691 21.5343 21.6714H22.9229C23.3394 21.6623 23.7547 21.7201 24.1529 21.8428C24.4728 21.9433 24.7658 22.1147 25.01 22.3443C25.2468 22.5743 25.4272 22.8559 25.5372 23.1671C25.6557 23.5278 25.7108 23.9062 25.7 24.2857C25.7121 24.7223 25.6468 25.1576 25.5072 25.5714ZM29.6343 22.3314C29.6299 22.3786 29.6183 22.4248 29.6 22.4686C29.5886 22.4977 29.5711 22.524 29.5486 22.5457C29.5299 22.5628 29.5053 22.572 29.48 22.5714H27.7143V24.0286H29.3772C29.3995 24.0213 29.4235 24.0213 29.4457 24.0286C29.4689 24.048 29.4866 24.0731 29.4972 24.1014C29.5151 24.1438 29.5266 24.1885 29.5315 24.2343C29.5461 24.3767 29.5461 24.5204 29.5315 24.6628C29.5263 24.7099 29.5148 24.756 29.4972 24.8C29.4867 24.8296 29.469 24.8561 29.4457 24.8771C29.4262 24.8923 29.4019 24.8999 29.3772 24.8986H27.7143V26.9171C27.7153 26.9464 27.7062 26.9751 27.6886 26.9985C27.6647 27.0255 27.6334 27.0449 27.5986 27.0543C27.5429 27.0719 27.4854 27.0834 27.4272 27.0885C27.249 27.1054 27.0696 27.1054 26.8915 27.0885C26.8332 27.0837 26.7757 27.0722 26.72 27.0543C26.6856 27.044 26.6545 27.0248 26.63 26.9985C26.6118 26.9755 26.6026 26.9465 26.6043 26.9171V22.0271C26.5997 21.9786 26.6058 21.9297 26.6221 21.8838C26.6384 21.8379 26.6645 21.7962 26.6986 21.7614C26.7631 21.7067 26.8455 21.6777 26.93 21.68H29.48C29.5047 21.679 29.5289 21.6866 29.5486 21.7014C29.5718 21.7226 29.5894 21.749 29.6 21.7786C29.6182 21.8238 29.6298 21.8714 29.6343 21.92C29.6384 21.9914 29.6384 22.0629 29.6343 22.1343C29.6382 22.2028 29.6382 22.2715 29.6343 22.34V22.3314Z" fill="white"/>
<path d="M18.8517 22.6613C18.7558 22.6113 18.6509 22.5807 18.5431 22.5713C18.4323 22.5563 18.3206 22.5492 18.2088 22.5498H17.7417V24.3884H18.2346C18.3807 24.3907 18.526 24.366 18.6631 24.3156C18.7745 24.2739 18.8744 24.2063 18.9546 24.1184C19.032 24.0298 19.0903 23.9263 19.126 23.8141C19.1665 23.6896 19.1867 23.5594 19.186 23.4284C19.1924 23.2669 19.1586 23.1064 19.0874 22.9613C19.0384 22.8412 18.9567 22.7373 18.8517 22.6613Z" fill="white"/>
<defs>
<filter id="filter0_f_2108_742" x="1.85742" y="33" width="42" height="22" filterUnits="userSpaceOnUse" color-interpolation-filters="sRGB">
<feFlood flood-opacity="0" result="BackgroundImageFix"/>
<feBlend mode="normal" in="SourceGraphic" in2="BackgroundImageFix" result="shape"/>
<feGaussianBlur stdDeviation="3.5" result="effect1_foregroundBlur_2108_742"/>
</filter>
</defs>
</svg>
