<svg width="176" height="147" viewBox="0 0 176 147" fill="none" xmlns="http://www.w3.org/2000/svg">
<path d="M89.5509 55.165L100.644 58.2798L103.758 69.3726L106.607 80.5366L98.5582 88.7805L90.3143 96.8297L79.1502 93.9808L68.0575 90.866L64.9427 79.7733L62.0938 68.6092L70.143 60.3653L78.3869 52.3161L89.5509 55.165Z" stroke="white" stroke-opacity="0.47"/>
<path d="M59.2037 25.3603L70.2965 28.4751L73.4113 39.5679L76.2602 50.7319L68.211 58.9758L59.9671 67.025L48.803 64.1761L37.7103 61.0613L34.5955 49.9686L31.7466 38.8045L39.7958 30.5607L48.0397 22.5115L59.2037 25.3603Z" stroke="white" stroke-opacity="0.47"/>
<path d="M48.0944 66.2744L59.1871 69.3892L62.3019 80.4819L65.1508 91.646L57.1016 99.8899L48.8577 107.939L37.6937 105.09L26.601 101.975L23.4861 90.8826L20.6373 79.7186L28.6865 71.4747L36.9304 63.4255L48.0944 66.2744Z" stroke="white" stroke-opacity="0.47"/>
<path d="M17.1451 35.9218L28.2379 39.0367L31.3527 50.1294L34.2016 61.2934L26.1524 69.5373L17.9085 77.5865L6.74445 74.7376L-4.34826 71.6228L-7.46308 60.5301L-10.3119 49.3661L-2.26275 41.1222L5.98114 33.073L17.1451 35.9218Z" stroke="white" stroke-opacity="0.47"/>
<path d="M5.86585 77.9072L16.9586 81.022L20.0734 92.1147L22.9223 103.279L14.8731 111.523L6.62921 119.572L-4.53485 116.723L-15.6276 113.608L-18.7424 102.515L-21.5912 91.3514L-13.542 83.1075L-5.29816 75.0583L5.86585 77.9072Z" stroke="white" stroke-opacity="0.47"/>
<path d="M78.4415 95.8086L89.5343 98.9234L92.6491 110.016L95.498 121.18L87.4488 129.424L79.2049 137.473L68.0408 134.624L56.9481 131.51L53.8333 120.417L50.9844 109.253L59.0336 101.009L67.2775 92.9597L78.4415 95.8086Z" stroke="white" stroke-opacity="0.47"/>
<path d="M37.1979 107.796L48.2906 110.911L51.4055 122.003L54.2543 133.167L46.2051 141.411L37.9612 149.461L26.7972 146.612L15.7045 143.497L12.5897 132.404L9.74079 121.24L17.79 112.996L26.0339 104.947L37.1979 107.796Z" stroke="white" stroke-opacity="0.47"/>
<path d="M109.211 125.8L120.304 128.915L123.419 140.007L126.268 151.171L118.218 159.415L109.974 167.464L98.8104 164.616L87.7177 161.501L84.6028 150.408L81.754 139.244L89.8032 131L98.0471 122.951L109.211 125.8Z" stroke="white" stroke-opacity="0.47"/>
<path d="M100.683 13.9892L111.776 17.104L114.891 28.1968L117.74 39.3608L109.69 47.6047L101.447 55.6539L90.2825 52.805L79.1898 49.6902L76.075 38.5975L73.2261 27.4335L81.2753 19.1896L89.5192 11.1404L100.683 13.9892Z" stroke="white" stroke-opacity="0.47"/>
<path d="M145.467 62.5361L151.173 82.8565L156.391 103.307L141.646 118.409L126.545 133.154L106.094 127.935L85.7735 122.229L80.0676 101.909L74.8488 81.4581L89.5938 66.3565L104.695 51.6115L125.146 56.8302L145.467 62.5361Z" fill="#FAD985"/>
</svg>
