<svg width="11" height="11" viewBox="0 0 11 11" fill="none" xmlns="http://www.w3.org/2000/svg">
<path d="M9.3874 6.6993C8.76253 6.6993 8.14898 6.60157 7.56756 6.40943C7.28266 6.31226 6.93243 6.4014 6.75855 6.57999L5.61094 7.44631C4.28005 6.73587 3.46025 5.91634 2.75952 4.59544L3.60034 3.47773C3.8188 3.25957 3.89715 2.94089 3.80328 2.64188C3.61031 2.0574 3.51229 1.44415 3.51229 0.819007C3.51231 0.367402 3.14491 0 2.69333 0H0.81898C0.367402 0 0 0.367402 0 0.81898C0 5.99525 4.21113 10.2064 9.3874 10.2064C9.83898 10.2064 10.2064 9.83895 10.2064 9.38737V7.51825C10.2064 7.0667 9.83895 6.6993 9.3874 6.6993Z" fill="#181717"/>
</svg>
