<svg width="21" height="21" viewBox="0 0 21 21" fill="none" xmlns="http://www.w3.org/2000/svg">
<path d="M19.315 13.7841C18.0293 13.7841 16.7668 13.583 15.5706 13.1877C14.9844 12.9877 14.2637 13.1711 13.906 13.5386L11.5447 15.3211C8.80638 13.8593 7.1196 12.1731 5.67782 9.4553L7.40785 7.15558C7.85733 6.70671 8.01855 6.051 7.82539 5.43577C7.42836 4.23319 7.22668 2.97139 7.22668 1.68514C7.22673 0.755945 6.47079 0 5.54165 0H1.68508C0.755945 0 0 0.755945 0 1.68508C0 12.3355 8.66457 21 19.315 21C20.2441 21 21 20.244 21 19.3149V15.4691C21 14.54 20.244 13.7841 19.315 13.7841Z" fill="#825231"/>
</svg>
