<svg width="25" height="29" viewBox="0 0 25 29" fill="none" xmlns="http://www.w3.org/2000/svg">
<path d="M12.5 0L25 7.25V21.75L12.5 29L0 21.75V7.25L12.5 0Z" fill="white"/>
<path d="M16.9397 11.8248C16.409 11.8248 15.9193 11.6458 15.526 11.3437C15.075 10.9974 14.7509 10.4894 14.6365 9.90395C14.6082 9.75929 14.5929 9.61001 14.5915 9.45703H13.0753V13.6761L13.0735 15.9871C13.0735 16.605 12.6784 17.1288 12.1308 17.3131C11.9718 17.3665 11.8002 17.3919 11.6214 17.3819C11.3933 17.3691 11.1795 17.299 10.9937 17.1858C10.5983 16.945 10.3302 16.508 10.3229 16.0082C10.3114 15.227 10.9316 14.5901 11.6981 14.5901C11.8494 14.5901 11.9947 14.6153 12.1308 14.661V13.5078V13.0932C11.9873 13.0716 11.8412 13.0603 11.6936 13.0603C10.8546 13.0603 10.0699 13.4155 9.50895 14.0553C9.085 14.5389 8.8307 15.1558 8.79147 15.8027C8.74007 16.6525 9.0454 17.4603 9.63756 18.0563C9.72456 18.1438 9.81593 18.225 9.91147 18.3C10.4192 18.6979 11.0398 18.9136 11.6936 18.9136C11.8412 18.9136 11.9873 18.9025 12.1308 18.8808C12.7414 18.7887 13.3049 18.504 13.7496 18.0563C14.2959 17.5064 14.5978 16.7763 14.6011 15.9991L14.5933 12.5481C14.8539 12.7529 15.1389 12.9223 15.4448 13.0538C15.9205 13.2582 16.4249 13.3618 16.9441 13.3617V12.2405V11.8244C16.9444 11.8248 16.9401 11.8248 16.9397 11.8248Z" fill="#3D3736"/>
</svg>
