<svg width="16" height="18" viewBox="0 0 16 18" fill="none" xmlns="http://www.w3.org/2000/svg">
<path d="M9.66678 0H6.15158C2.76821 0 0 2.88357 0 6.40793V9.15418C0 11.6258 1.38411 13.8915 3.51519 14.9442V18.0109C3.51519 18.2855 3.84474 18.4228 4.0205 18.2168L6.56901 15.5621H9.66678C13.0501 15.5621 15.8184 12.6785 15.8184 9.15418V6.40793C15.8184 2.88357 13.0501 0 9.66678 0ZM11.9736 12.0149L11.0729 12.9303C10.1281 13.8915 7.68948 12.793 5.53643 10.5044C3.38337 8.21588 2.43866 5.65271 3.33943 4.69152L4.21823 3.7761C4.54778 3.43282 5.09703 3.4557 5.47052 3.79899L6.74477 5.17211C7.20614 5.65271 7.00841 6.47658 6.41522 6.65967C5.9978 6.79698 5.71219 7.27758 5.844 7.7124C6.0637 8.71936 7.29402 10.0009 8.21676 10.2527C8.63419 10.3442 9.09556 10.1154 9.24935 9.68055C9.44708 9.06264 10.238 8.87956 10.6774 9.36015L11.9516 10.7333C12.3032 11.0537 12.3032 11.6258 11.9736 12.0149ZM8.7001 4.34824C8.61222 4.34824 8.52434 4.34824 8.43646 4.37112C8.28267 4.39401 8.12888 4.2567 8.10691 4.0965C8.08494 3.9363 8.21676 3.7761 8.37055 3.75322C8.4804 3.73033 8.59025 3.73033 8.7001 3.73033C10.3039 3.73033 11.6221 5.10346 11.6221 6.7741C11.6221 6.88852 11.6221 7.00295 11.6001 7.11738C11.5782 7.27758 11.4244 7.41489 11.2706 7.392C11.1168 7.36912 10.985 7.20892 11.0069 7.04872C11.0069 6.95718 11.0289 6.86564 11.0289 6.7741C11.0509 5.44674 9.99632 4.34824 8.7001 4.34824ZM10.4577 6.79698C10.4577 6.95718 10.3259 7.09449 10.1721 7.09449C10.0183 7.09449 9.88647 6.95718 9.88647 6.79698C9.88647 6.1333 9.3592 5.58405 8.72207 5.58405C8.56828 5.58405 8.43646 5.44674 8.43646 5.28654C8.43646 5.12634 8.56828 4.98903 8.72207 4.98903C9.66678 4.96614 10.4577 5.79002 10.4577 6.79698ZM12.6986 7.78106C12.6547 7.94125 12.5009 8.05568 12.3251 8.00991C12.1713 7.96414 12.0835 7.80394 12.1274 7.64374C12.1933 7.36912 12.2153 7.09449 12.2153 6.79698C12.2153 4.78306 10.6335 3.13531 8.7001 3.13531C8.61222 3.13531 8.52434 3.13531 8.43646 3.13531C8.28267 3.13531 8.12888 3.02088 8.12888 2.86068C8.12888 2.70048 8.23873 2.54029 8.39252 2.54029C8.50237 2.54029 8.61222 2.5174 8.7001 2.5174C10.963 2.5174 12.8085 4.43978 12.8085 6.79698C12.8085 7.11738 12.7645 7.46066 12.6986 7.78106Z" fill="#825231"/>
</svg>
