<svg width="46" height="56" viewBox="0 0 46 56" fill="none" xmlns="http://www.w3.org/2000/svg">
<g id="Group 20">
<g id="Ellipse 18" filter="url(#filter0_f_2063_1439)">
<ellipse cx="22.5" cy="44.15" rx="15.5" ry="4" fill="#31B071" fill-opacity="0.67"/>
</g>
<rect id="Rectangle 31" width="46" height="46" rx="23" fill="#31B071"/>
<g id="Group">
<g id="Group_2">
<path id="Vector" d="M34.9997 18.3151C34.9997 18.1589 34.9504 18.0035 34.8532 17.8736L30.424 11.9543C30.2848 11.7683 30.0662 11.6589 29.834 11.6589C29.8333 11.6589 29.8325 11.6589 29.8317 11.6589C29.5987 11.6596 29.3797 11.7706 29.2413 11.9581L24.8704 17.8774C24.7751 18.0066 24.7267 18.1604 24.7266 18.3151C24.7265 18.3151 24.7264 18.3151 24.7263 18.3151V26.4573H23.1218V16.0923H23.9438C24.2427 16.0923 24.512 15.9117 24.6255 15.6351C24.739 15.3586 24.6741 15.0409 24.4614 14.8309L18.463 8.91158C18.1747 8.62705 17.7108 8.62868 17.4244 8.91502L11.505 14.8344C11.2943 15.0451 11.2312 15.3621 11.3453 15.6374C11.4593 15.9127 11.728 16.0923 12.026 16.0923H12.769V26.4573H10.5857C10.1788 26.4573 9.84888 26.7872 9.84888 27.1942V33.1135C9.84888 33.5205 10.1788 33.8504 10.5857 33.8504H28.3438C28.7508 33.8504 29.0807 33.5205 29.0807 33.1135V31.6337C29.0807 31.224 29.414 30.8907 29.8237 30.8907C30.2334 30.8907 30.5667 31.224 30.5667 31.6337V33.1135C30.5667 33.5205 30.8966 33.8504 31.3035 33.8504H34.2632C34.6701 33.8504 35 33.5205 35 33.1135V18.3151C34.9999 18.3151 34.9998 18.3151 34.9997 18.3151ZM26.2 26.4573V19.052H33.5263V26.4573H26.2ZM29.8379 13.6309L32.7916 17.5783H26.9232L29.8379 13.6309ZM17.2025 26.4573V21.2748V19.795C17.2025 19.3853 17.5358 19.052 17.9454 19.052C18.3551 19.052 18.6884 19.3853 18.6884 19.795V21.2748V26.4573H17.2025ZM20.1621 26.4573V22.0117H21.6481V26.4573H20.1621ZM17.9489 10.4747L22.148 14.6186H13.805L17.9489 10.4747ZM21.6481 16.0923V20.538H20.1621V19.795C20.1621 18.5727 19.1677 17.5783 17.9454 17.5783C16.7232 17.5783 15.7287 18.5727 15.7287 19.795V20.538H14.2428V16.0923H21.6481ZM14.2428 22.0117H15.7287V26.4573H14.2428V22.0117ZM11.3226 27.931H17.2483V32.3767H11.3226V27.931ZM18.722 27.931H24.6473V32.3767H18.722V27.931ZM33.5263 32.3767H32.0404V31.6337C32.0404 30.4114 31.046 29.417 29.8237 29.417C28.6014 29.417 27.607 30.4114 27.607 31.6337V32.3767H26.121V27.931H33.5263V32.3767Z" fill="white"/>
</g>
<g id="Group_3">
<path id="Vector_2" d="M29.864 20.5776C28.6635 20.5776 27.6868 21.5543 27.6868 22.7548C27.6868 23.9554 28.6634 24.932 29.864 24.932C31.0645 24.932 32.0412 23.9554 32.0412 22.7548C32.0412 21.5543 31.0645 20.5776 29.864 20.5776ZM29.864 23.4583C29.4761 23.4583 29.1605 23.1428 29.1605 22.7548C29.1605 22.3669 29.476 22.0513 29.864 22.0513C30.2519 22.0513 30.5675 22.3669 30.5675 22.7548C30.5675 23.1428 30.2519 23.4583 29.864 23.4583Z" fill="white"/>
</g>
</g>
</g>
<defs>
<filter id="filter0_f_2063_1439" x="0" y="33.15" width="45" height="22" filterUnits="userSpaceOnUse" color-interpolation-filters="sRGB">
<feFlood flood-opacity="0" result="BackgroundImageFix"/>
<feBlend mode="normal" in="SourceGraphic" in2="BackgroundImageFix" result="shape"/>
<feGaussianBlur stdDeviation="3.5" result="effect1_foregroundBlur_2063_1439"/>
</filter>
</defs>
</svg>
