<svg width="46" height="55" viewBox="0 0 46 55" fill="none" xmlns="http://www.w3.org/2000/svg">
<rect width="46" height="46" rx="22.8571" fill="#FCAA30"/>
<g filter="url(#filter0_f_2063_1430)">
<ellipse cx="22.8574" cy="44" rx="14" ry="4" fill="#FCAA30" fill-opacity="0.53"/>
</g>
<path d="M33.9239 14.3592L23.6181 10.0804C23.3599 9.97323 23.0697 9.97318 22.8116 10.0804L12.5058 14.3592C12.1133 14.5222 11.8574 14.9055 11.8574 15.3305V20.532C11.8574 27.6942 16.1863 34.1367 22.8174 36.8433C23.0721 36.9473 23.3575 36.9473 23.6122 36.8433C30.2432 34.1368 34.5723 27.6942 34.5723 20.532V15.3305C34.5723 14.9055 34.3165 14.5222 33.9239 14.3592ZM32.469 20.532C32.469 26.6206 28.8936 32.2255 23.2148 34.7274C17.6879 32.2924 13.9606 26.7856 13.9606 20.532V16.0325L23.2148 12.1902L32.469 16.0325V20.532ZM22.0525 24.0767L26.5725 19.5567C26.9832 19.146 27.649 19.146 28.0597 19.5567C28.4704 19.9674 28.4704 20.6332 28.0597 21.0439L22.7961 26.3075C22.3853 26.7182 21.7195 26.7181 21.3089 26.3075L18.37 23.3685C17.9592 22.9578 17.9592 22.292 18.37 21.8813C18.7807 21.4707 19.4465 21.4706 19.8571 21.8813L22.0525 24.0767Z" fill="white"/>
<defs>
<filter id="filter0_f_2063_1430" x="1.85742" y="33" width="42" height="22" filterUnits="userSpaceOnUse" color-interpolation-filters="sRGB">
<feFlood flood-opacity="0" result="BackgroundImageFix"/>
<feBlend mode="normal" in="SourceGraphic" in2="BackgroundImageFix" result="shape"/>
<feGaussianBlur stdDeviation="3.5" result="effect1_foregroundBlur_2063_1430"/>
</filter>
</defs>
</svg>
