<svg width="46" height="56" viewBox="0 0 46 56" fill="none" xmlns="http://www.w3.org/2000/svg">
<g filter="url(#filter0_f_2063_1447)">
<ellipse cx="23" cy="44.15" rx="13" ry="4" fill="#FCAA30" fill-opacity="0.59"/>
</g>
<rect width="46" height="46" rx="23" fill="#FCAA30"/>
<path d="M33.9153 22.4088H29.0589V11.8418C29.0589 11.4597 28.7492 11.1499 28.3671 11.1499H17.2382C16.8561 11.1499 16.5463 11.4597 16.5463 11.8418V22.4088H11.6919C11.3098 22.4088 11 22.7186 11 23.1007V34.0734C11 34.4555 11.3098 34.7653 11.6919 34.7653H33.9153C34.2974 34.7653 34.6072 34.4555 34.6072 34.0734V23.1007C34.6071 22.7186 34.2974 22.4088 33.9153 22.4088ZM17.93 12.5336H27.6753V22.4088H17.93V12.5336ZM22.1117 33.3815H12.3837V23.7926H22.1117V33.3815ZM33.2234 33.3815H23.4954V23.7926H33.2235L33.2234 33.3815Z" fill="white"/>
<path d="M27.8002 25.7102L26.2187 29.4112C26.2044 29.4391 26.192 29.4682 26.1815 29.4982L25.5739 30.9201C25.4238 31.2715 25.5869 31.6781 25.9382 31.8282C26.2895 31.9782 26.6961 31.8153 26.8463 31.4639L27.2931 30.4185H29.5032L29.9267 31.4539C30.0362 31.7219 30.2947 31.884 30.5673 31.884C30.6545 31.884 30.7432 31.8674 30.8289 31.8324C31.1826 31.6877 31.352 31.2838 31.2074 30.9301L30.6432 29.5504C30.6275 29.491 30.6045 29.4346 30.5746 29.3826L29.0769 25.7202C28.9712 25.462 28.7209 25.2925 28.4419 25.2903C28.44 25.2903 28.4382 25.2903 28.4364 25.2903C28.1595 25.2903 27.9091 25.4554 27.8002 25.7102ZM28.9373 29.0347H27.8843L28.4224 27.7756L28.9373 29.0347Z" fill="white"/>
<path d="M24.5862 20.9078C24.7296 20.9078 24.8724 20.8633 24.9929 20.7757C25.206 20.6209 25.3127 20.3586 25.2681 20.099L24.989 18.4716L26.1714 17.319C26.3599 17.1352 26.4278 16.8602 26.3464 16.6098C26.2651 16.3593 26.0485 16.1768 25.7879 16.1389L24.1539 15.9015L23.4231 14.4208C23.3066 14.1846 23.0661 14.0352 22.8027 14.0352C22.5394 14.0352 22.2989 14.1846 22.1823 14.4208L21.4515 15.9015L19.8175 16.1389C19.5569 16.1768 19.3404 16.3593 19.259 16.6098C19.1776 16.8602 19.2455 17.1352 19.434 17.319L20.6165 18.4716L20.3373 20.099C20.2928 20.3585 20.3995 20.6209 20.6125 20.7757C20.8256 20.9305 21.108 20.9509 21.3412 20.8284L22.8027 20.06L24.2643 20.8284C24.3655 20.8815 24.4761 20.9078 24.5862 20.9078ZM23.7627 17.7346C23.5997 17.8935 23.5253 18.1226 23.5637 18.347L23.6674 18.9513L23.1247 18.666C23.0239 18.613 22.9133 18.5865 22.8027 18.5865C22.6922 18.5865 22.5816 18.613 22.4808 18.666L21.9381 18.9513L22.0417 18.347C22.0802 18.1226 22.0058 17.8935 21.8428 17.7346L21.4037 17.3067L22.0104 17.2185C22.2358 17.1858 22.4306 17.0443 22.5313 16.84L22.8027 16.2902L23.074 16.84C23.1748 17.0442 23.3696 17.1858 23.5949 17.2185L24.2016 17.3067L23.7627 17.7346Z" fill="white"/>
<path d="M18.468 25.6987C17.9983 25.6987 17.5509 25.8625 17.194 26.1434C16.8374 25.8625 16.3904 25.6987 15.9217 25.6987H15.9162C15.3828 25.6987 14.8813 25.9061 14.5035 26.2828C14.1032 26.6821 13.8715 27.2472 13.866 27.8362C13.8659 27.8433 13.8657 27.8504 13.8657 27.8575C13.8657 28.8577 14.4028 29.8592 15.419 30.754C16.1351 31.3846 16.8497 31.7533 16.8797 31.7687C16.9776 31.8188 17.0857 31.8446 17.1948 31.8446C17.2287 31.8446 17.2627 31.8421 17.2965 31.8371C17.3748 31.8254 17.493 31.8079 17.9835 31.5019C18.2314 31.3472 18.6063 31.0919 18.9845 30.7538C19.9928 29.8523 20.5258 28.8151 20.5258 27.7544C20.5258 26.6209 19.6027 25.6987 18.468 25.6987ZM17.1985 30.3586C16.464 29.9034 15.2604 28.9352 15.2495 27.872C15.2496 27.8672 15.2497 27.8623 15.2497 27.8575C15.2497 27.6258 15.3338 27.4089 15.4806 27.2626C15.6004 27.143 15.7469 27.0824 15.9179 27.0824H15.9198C16.1964 27.0824 16.4492 27.2552 16.5489 27.5123C16.6522 27.7785 16.9084 27.954 17.194 27.954C17.4795 27.954 17.7357 27.7785 17.839 27.5123C17.9387 27.2552 18.1915 27.0824 18.468 27.0824C18.8397 27.0824 19.142 27.3839 19.142 27.7545C19.1421 29.0265 17.801 29.9901 17.1985 30.3586Z" fill="white"/>
<defs>
<filter id="filter0_f_2063_1447" x="3" y="33.15" width="40" height="22" filterUnits="userSpaceOnUse" color-interpolation-filters="sRGB">
<feFlood flood-opacity="0" result="BackgroundImageFix"/>
<feBlend mode="normal" in="SourceGraphic" in2="BackgroundImageFix" result="shape"/>
<feGaussianBlur stdDeviation="3.5" result="effect1_foregroundBlur_2063_1447"/>
</filter>
</defs>
</svg>
