<svg width="46" height="56" viewBox="0 0 46 56" fill="none" xmlns="http://www.w3.org/2000/svg">
<rect width="46" height="46" rx="23" fill="#FF854B"/>
<g filter="url(#filter0_f_2063_1435)">
<ellipse cx="22" cy="44.15" rx="13" ry="4" fill="#FF854B" fill-opacity="0.84"/>
</g>
<path d="M34.875 21.7017H34.4515L35.5988 18.7033C35.7139 18.4023 35.6307 18.0615 35.3899 17.8473C35.149 17.6331 34.8008 17.5904 34.5153 17.74L32.5174 18.787C32.5312 18.3008 32.4534 17.8388 32.2838 17.3975C32.2773 17.3806 32.2704 17.3638 32.2636 17.347L34.0098 16.6929C34.7063 16.4319 35.2499 15.8807 35.501 15.1806C35.752 14.4804 35.6828 13.7094 35.3109 13.0652C34.9278 12.4017 34.2771 11.9655 33.545 11.8455C33.3601 11.2348 32.9508 10.7146 32.3913 10.3916C31.8318 10.0686 31.1767 9.97419 30.5553 10.1195C30.0854 9.54536 29.3823 9.20001 28.6161 9.20001C27.8723 9.20001 27.1699 9.52552 26.6891 10.0931C26.2083 10.6606 26.0027 11.4069 26.125 12.1406L26.4317 13.9807C26.4137 13.9832 26.3956 13.9849 26.3777 13.9877C25.7688 14.084 25.2073 14.3326 24.6867 14.7383C24.0977 14.0269 23.2691 13.5439 22.3509 13.3876C22.1661 12.6765 21.7811 12.0297 21.2327 11.5219C20.5149 10.8574 19.5807 10.4915 18.6021 10.4915C17.6235 10.4915 16.6893 10.8574 15.9715 11.5219C15.4232 12.0295 15.0383 12.6763 14.8533 13.3872C13.1919 13.6686 11.887 15.0115 11.6625 16.6914C10.7335 16.5017 9.99411 16.5371 9.93563 16.5404C9.54126 16.5621 9.22639 16.877 9.20459 17.2714C9.19839 17.3847 9.07141 20.0488 10.6914 21.7017H9.97494C9.54699 21.7017 9.20004 22.0487 9.20004 22.4766V26.6095C9.20004 29.6227 11.4551 32.119 14.366 32.4999V34.8751C14.366 35.3031 14.713 35.65 15.1409 35.65H29.709C30.137 35.65 30.4839 35.3031 30.4839 34.8751V32.4999C33.3949 32.119 35.6499 29.6227 35.6499 26.6095V22.4766C35.6499 22.0487 35.303 21.7017 34.875 21.7017ZM33.4185 20.0645L32.792 21.7017H31.5268C31.5533 21.6574 31.5795 21.6131 31.6047 21.5696C31.7547 21.3098 31.8858 21.0563 31.9988 20.8085L33.4185 20.0645ZM33.0783 14.1838C33.2646 13.9576 33.4069 13.704 33.504 13.4353C33.6963 13.5142 33.8609 13.6534 33.9687 13.8401C34.1124 14.0889 34.1392 14.3868 34.0422 14.6572C33.9451 14.9277 33.7352 15.1407 33.4661 15.2415L31.6464 15.9233L33.0783 14.1838ZM31.6164 11.7337C31.8653 11.8775 32.0374 12.122 32.0886 12.4048C32.1399 12.6875 32.0645 12.9769 31.8818 13.1987L30.2746 15.1511C30.1272 15.055 29.9719 14.9599 29.8083 14.8655C29.6448 14.7711 29.4847 14.6841 29.3278 14.6045L30.215 12.2364C30.3158 11.9673 30.5288 11.7574 30.7993 11.6603C31.0697 11.5634 31.3676 11.5901 31.6164 11.7337ZM27.8718 11.0948C28.0575 10.8755 28.3288 10.7498 28.6162 10.7498C28.8318 10.7498 29.0347 10.8227 29.1991 10.9499C29.0149 11.1683 28.8666 11.4184 28.7638 11.6927L27.9733 13.8026L27.6539 11.8858C27.6066 11.6023 27.686 11.314 27.8718 11.0948ZM29.0334 16.2077C30.0267 16.7812 30.5998 17.3358 30.8371 17.9534C30.9677 18.2933 30.9986 18.6718 30.9311 19.0929L30.0481 18.5831C29.6774 18.3691 29.2035 18.4961 28.9896 18.8667C28.7756 19.2373 28.9025 19.7113 29.2732 19.9253L30.3881 20.569C30.3483 20.6433 30.3065 20.7184 30.2625 20.7947C30.2625 20.7947 30.2625 20.7947 30.2625 20.7947C30.1004 21.0755 29.9041 21.3794 29.677 21.7017H22.7591C22.9633 20.9684 23.2056 20.236 23.4669 19.5556L24.4026 20.0958C24.5246 20.1663 24.6578 20.1998 24.7893 20.1998C25.0571 20.1998 25.3176 20.0608 25.4611 19.8122C25.6751 19.4416 25.5481 18.9677 25.1775 18.7537L24.0843 18.1226C24.2047 17.8758 24.3259 17.6456 24.4464 17.4368C24.6618 17.0638 24.877 16.7522 25.0936 16.4953C25.1153 16.473 25.1356 16.4495 25.1543 16.4249C26.3254 15.093 27.5405 15.3457 29.0334 16.2077ZM15.4926 14.8826C15.4998 14.8827 15.5071 14.8829 15.5142 14.8828C15.9171 14.8828 16.2532 14.5738 16.2863 14.1716C16.3849 12.977 17.4021 12.0412 18.6021 12.0412C19.8022 12.0412 20.8194 12.977 20.918 14.1716C20.9512 14.5738 21.2872 14.8828 21.6901 14.8828C21.6974 14.8829 21.7044 14.8827 21.7116 14.8826C22.4768 14.8858 23.1819 15.2658 23.6096 15.88C23.4363 16.1183 23.2679 16.3784 23.1043 16.6618C22.3676 17.9377 21.6405 19.825 21.154 21.7017H19.5905C21.2104 20.0488 21.0835 17.3846 21.0772 17.2714C21.0554 16.877 20.7405 16.5621 20.3462 16.5404C20.2324 16.5341 17.5367 16.4054 15.8862 18.0559C15.5809 18.3613 15.3366 18.7025 15.1409 19.0564C14.9453 18.7025 14.701 18.3613 14.3956 18.056C14.0282 17.6886 13.6091 17.4095 13.1781 17.1974C13.1835 15.9234 14.2186 14.8879 15.4926 14.8826ZM15.9521 21.6655C16.0295 20.9425 16.2677 19.8662 16.9821 19.1518C17.6966 18.4373 18.7732 18.1992 19.4958 18.1218C19.4183 18.8448 19.1802 19.9212 18.4658 20.6355C17.7513 21.35 16.6747 21.5881 15.9521 21.6655ZM12.1672 18.4435C12.1736 18.446 12.1799 18.4484 12.1863 18.4507C12.5872 18.608 12.9798 18.8319 13.2998 19.1518C14.0143 19.8663 14.2524 20.9429 14.3298 21.6654C13.6068 21.588 12.5305 21.3498 11.8161 20.6354C11.1016 19.921 10.8634 18.8444 10.7861 18.1218C11.1801 18.164 11.679 18.2548 12.1672 18.4435ZM28.9341 34.1002H15.9158V32.5504H28.9341V34.1002ZM34.1001 26.6095C34.1001 29.0307 32.1303 31.0006 29.709 31.0006H15.1409C12.7197 31.0006 10.7498 29.0307 10.7498 26.6095V23.2516H34.1001V26.6095Z" fill="white"/>
<defs>
<filter id="filter0_f_2063_1435" x="2" y="33.15" width="40" height="22" filterUnits="userSpaceOnUse" color-interpolation-filters="sRGB">
<feFlood flood-opacity="0" result="BackgroundImageFix"/>
<feBlend mode="normal" in="SourceGraphic" in2="BackgroundImageFix" result="shape"/>
<feGaussianBlur stdDeviation="3.5" result="effect1_foregroundBlur_2063_1435"/>
</filter>
</defs>
</svg>
