<svg width="46" height="56" viewBox="0 0 46 56" fill="none" xmlns="http://www.w3.org/2000/svg">
<g id="Group 21">
<g id="Ellipse 18" filter="url(#filter0_f_2063_1424)">
<ellipse cx="23.5" cy="44.15" rx="13.5" ry="4" fill="#40BABF" fill-opacity="0.47"/>
</g>
<rect id="Rectangle 34" width="46" height="46" rx="23" fill="#40BABF"/>
<g id="Group">
<path id="Vector" d="M31.2474 12.4966H22.8843C20.8151 12.4966 19.1318 14.1934 19.1318 16.2791V17.3961H13.6668C11.5977 17.3961 9.91431 19.093 9.91431 21.1787V31.6189C9.91431 31.8583 10.031 32.0828 10.2269 32.2204C10.3523 32.3084 10.5001 32.3538 10.6493 32.3538C10.7333 32.3538 10.8177 32.3394 10.8989 32.3101L16.196 30.3974H22.03C24.0992 30.3974 25.7825 28.7005 25.7825 26.6148V25.4978H28.7184L34.0154 27.4106C34.0966 27.4399 34.181 27.4543 34.265 27.4543C34.4142 27.4543 34.562 27.4089 34.6873 27.3208C34.8833 27.1832 35 26.9588 35 26.7193V16.2792C34.9999 14.1934 33.3166 12.4966 31.2474 12.4966ZM24.3126 26.6148C24.3126 27.89 23.2886 28.9275 22.03 28.9275H16.0673C15.9822 28.9275 15.8978 28.9423 15.8177 28.9712L11.3842 30.5721V21.1787C11.3842 19.9035 12.4082 18.866 13.6668 18.866H19.1318V21.7154C19.1318 23.801 20.8151 25.4979 22.8843 25.4979H24.3126V26.6148ZM33.5301 25.6726L29.0966 24.0717C29.0165 24.0428 28.9321 24.028 28.8469 24.028H22.8843C21.6256 24.028 20.6016 22.9905 20.6016 21.7153V16.2792C20.6016 15.004 21.6256 13.9665 22.8843 13.9665H31.2474C32.5061 13.9665 33.5301 15.004 33.5301 16.2792V25.6726Z" fill="white"/>
<path id="Vector_2" d="M31.3709 15.3096C30.4478 15.3096 29.6651 16.0045 29.5504 16.9261L29.3792 18.3032C29.3149 18.8202 28.88 19.2101 28.3676 19.2101H27.7829V16.1478C27.7829 15.7419 27.4538 15.4129 27.0479 15.4129C26.6421 15.4129 26.313 15.7419 26.313 16.1478V19.2101H25.7282C25.2158 19.2101 24.781 18.8202 24.7167 18.3032L24.5454 16.9261C24.4307 16.0045 23.6481 15.3096 22.7249 15.3096C22.319 15.3096 21.99 15.6386 21.99 16.0445C21.99 16.4504 22.319 16.7794 22.7249 16.7794C22.9079 16.7794 23.0635 16.9204 23.0868 17.1075L23.258 18.4846C23.4137 19.7362 24.4757 20.68 25.7282 20.68H26.313V21.8673C26.313 22.2731 26.6421 22.6022 27.0479 22.6022C27.4538 22.6022 27.7829 22.2731 27.7829 21.8673V20.68H28.3676C29.6202 20.68 30.6821 19.7362 30.8378 18.4846L31.009 17.1075C31.0323 16.9204 31.1879 16.7794 31.3709 16.7794C31.7768 16.7794 32.1059 16.4503 32.1059 16.0445C32.1059 15.6386 31.7768 15.3096 31.3709 15.3096Z" fill="white"/>
</g>
</g>
<defs>
<filter id="filter0_f_2063_1424" x="3" y="33.15" width="41" height="22" filterUnits="userSpaceOnUse" color-interpolation-filters="sRGB">
<feFlood flood-opacity="0" result="BackgroundImageFix"/>
<feBlend mode="normal" in="SourceGraphic" in2="BackgroundImageFix" result="shape"/>
<feGaussianBlur stdDeviation="3.5" result="effect1_foregroundBlur_2063_1424"/>
</filter>
</defs>
</svg>
