<svg width="46" height="56" viewBox="0 0 46 56" fill="none" xmlns="http://www.w3.org/2000/svg">
<g id="Group 22">
<g id="Ellipse 18" filter="url(#filter0_f_2063_1420)">
<ellipse cx="22.5" cy="44.15" rx="13.5" ry="4" fill="#FF854B" fill-opacity="0.84"/>
</g>
<rect id="Rectangle 35" width="46" height="46" rx="23" fill="#FF854B"/>
<path id="Vector" d="M34.2969 21.0829H32.414C32.3571 21.0829 32.3007 21.0852 32.2446 21.0888C31.8217 20.7158 31.3538 20.4078 30.8534 20.1705C31.9947 19.3693 32.7407 18.0526 32.7407 16.5669C32.7407 14.1314 30.736 12.15 28.272 12.15C25.8077 12.15 23.8031 14.1314 23.8031 16.5669C23.8031 17.7374 24.2664 18.8028 25.0208 19.5939H21.7325C22.4869 18.8028 22.95 17.7374 22.95 16.5669C22.95 14.1314 20.9454 12.15 18.4813 12.15C16.0173 12.15 14.0125 14.1314 14.0125 16.5669C14.0125 17.9328 14.6431 19.1557 15.6315 19.9667C14.947 20.2196 14.312 20.5976 13.7552 21.0888C13.6992 21.0852 13.6429 21.0829 13.586 21.0829H11.7031C11.3148 21.0829 11 21.394 11 21.7778V25.4998C11 25.8836 11.3148 26.1947 11.7031 26.1947H11.7531V31.455C11.7531 31.8387 12.0679 32.15 12.4562 32.15H33.5438C33.9321 32.15 34.2469 31.8387 34.2469 31.455V26.1947H34.2969C34.6852 26.1947 35 25.8836 35 25.4998V21.7778C35 21.394 34.6852 21.0829 34.2969 21.0829ZM33.5938 24.8048H32.414C31.7636 24.8048 31.2343 24.2817 31.2343 23.6387C31.2343 22.9959 31.7636 22.4728 32.414 22.4728H33.5938V24.8048ZM25.2094 16.5669C25.2094 14.8979 26.5832 13.54 28.2718 13.54C29.9604 13.54 31.3344 14.8979 31.3344 16.5669C31.3344 18.2362 29.9606 19.5939 28.272 19.5939C26.5832 19.5939 25.2094 18.2362 25.2094 16.5669ZM18.4813 13.54C20.1699 13.54 21.5438 14.8979 21.5438 16.5669C21.5438 18.236 20.1699 19.5939 18.4813 19.5939C16.7925 19.5939 15.4187 18.2362 15.4187 16.5669C15.4187 14.8979 16.7925 13.54 18.4813 13.54ZM12.4062 22.4728H13.586C14.2364 22.4728 14.7657 22.9959 14.7657 23.6389C14.7657 24.2817 14.2364 24.8048 13.586 24.8048H12.4062V22.4728ZM13.1594 26.1947H13.586C15.0118 26.1947 16.172 25.0482 16.172 23.6387C16.172 22.8583 15.8157 22.1588 15.2561 21.6897H15.2728C15.9995 21.2302 16.8447 20.984 17.7282 20.984H24.426C23.1249 22.0681 22.2969 23.6901 22.2969 25.4998V30.7601H16.1718V27.7329C16.1718 27.3492 15.8571 27.0379 15.4687 27.0379C15.0805 27.0379 14.7656 27.3492 14.7656 27.7329V30.7599H13.1594V26.1947ZM32.8406 30.7599H31.2343V27.7329C31.2343 27.3492 30.9195 27.0379 30.5311 27.0379C30.1429 27.0379 29.828 27.3492 29.828 27.7329V30.7599H23.7031V25.4998C23.7031 23.0098 25.7526 20.984 28.272 20.984C29.1595 20.984 30.0082 21.2323 30.7368 21.6957C30.1812 22.165 29.8282 22.8616 29.8282 23.6389C29.8282 25.0482 30.9882 26.1947 32.4142 26.1947H32.8406V30.7599Z" fill="white"/>
</g>
<defs>
<filter id="filter0_f_2063_1420" x="2" y="33.15" width="41" height="22" filterUnits="userSpaceOnUse" color-interpolation-filters="sRGB">
<feFlood flood-opacity="0" result="BackgroundImageFix"/>
<feBlend mode="normal" in="SourceGraphic" in2="BackgroundImageFix" result="shape"/>
<feGaussianBlur stdDeviation="3.5" result="effect1_foregroundBlur_2063_1420"/>
</filter>
</defs>
</svg>
